<svg width="114" height="64" viewBox="0 0 114 64" fill="none" xmlns="http://www.w3.org/2000/svg">
<path fill-rule="evenodd" clip-rule="evenodd" d="M32.4338 34.6045C32.7318 34.6102 32.8336 34.7102 32.8617 34.999C32.8731 35.1169 32.8681 35.2366 32.8681 35.3557C32.8684 38.8654 32.8686 42.3754 32.8676 45.8852C32.8676 46.0335 32.8691 46.1838 32.848 46.3297C32.8194 46.5261 32.7176 46.6295 32.5245 46.6328C31.9924 46.6423 31.4601 46.6433 30.9283 46.6318C30.712 46.6268 30.6197 46.5145 30.6015 46.2878C30.5911 46.1547 30.5953 46.0202 30.5953 45.8867C30.5949 43.983 30.5951 42.0793 30.5951 40.1756V39.737C30.5605 39.7332 30.526 39.7292 30.4914 39.7256C30.4436 39.862 30.3953 39.9982 30.348 40.1349C30.1885 40.5979 30.0444 41.0672 29.8661 41.5229C29.5201 42.4076 29.1556 43.2856 28.7971 44.1656C28.5505 44.7703 28.4624 44.8279 27.8042 44.8296C27.5529 44.8301 27.3015 44.8227 27.0504 44.831C26.6994 44.8424 26.4658 44.7013 26.3269 44.3651C25.8105 43.1166 25.2794 41.874 24.7611 40.6263C24.6761 40.4218 24.629 40.2011 24.5604 39.9892C24.5391 39.923 24.5298 39.8401 24.4091 39.827C24.4042 39.973 24.3952 40.1163 24.3952 40.2596C24.3942 42.1486 24.3947 44.0372 24.394 45.9259C24.394 46.0595 24.3968 46.1945 24.3831 46.3269C24.3632 46.5211 24.2664 46.6092 24.0669 46.6345C24.0231 46.6402 23.9786 46.6414 23.9344 46.6414C23.5055 46.6418 23.0767 46.6478 22.648 46.6392C22.3053 46.6326 22.2121 46.5299 22.1967 46.1781C22.1927 46.0888 22.1953 45.9995 22.1953 45.9102C22.1953 42.3857 22.195 38.8611 22.1955 35.3364C22.1955 35.2028 22.1903 35.0676 22.2055 34.9354C22.2298 34.724 22.3392 34.6212 22.556 34.6078C22.7477 34.5959 22.9403 34.6014 23.1325 34.6009C23.3985 34.6005 23.665 34.609 23.9306 34.5995C24.1717 34.5905 24.323 34.6959 24.4051 34.9181C24.4309 34.9878 24.4643 35.0545 24.4939 35.1226C25.3454 37.0836 26.1991 39.044 27.0466 41.007C27.1759 41.3062 27.2762 41.6184 27.3934 41.9229C27.4241 42.0026 27.4681 42.0771 27.5257 42.1943C27.5801 42.0921 27.618 42.0336 27.6442 41.9702C28.3554 40.2403 29.0648 38.509 29.7764 36.7791C30.0195 36.1887 30.2806 35.6054 30.5094 35.0097C30.6211 34.7183 30.7847 34.5819 31.1035 34.5964C31.5463 34.6164 31.9905 34.5959 32.4338 34.6045ZM53.0843 34.6103C53.3023 34.6153 53.3924 34.7236 53.4125 34.9522C53.423 35.0703 53.4197 35.1898 53.4197 35.3088C53.4199 38.8484 53.4199 42.3879 53.4197 45.9277C53.4194 46.0615 53.4215 46.196 53.4073 46.3286C53.3865 46.525 53.2926 46.6093 53.0907 46.6353C53.0616 46.6388 53.0317 46.6403 53.0024 46.6403C52.544 46.6408 52.0858 46.6381 51.6273 46.6419C51.4472 46.6434 51.3144 46.5739 51.2247 46.4174C51.1658 46.3143 51.1047 46.2124 51.0451 46.1098C50.048 44.3885 49.0473 42.6693 48.0561 40.9447C47.7901 40.4819 47.553 40.0026 47.3016 39.5314C47.268 39.4683 47.2297 39.4083 47.1934 39.3472C47.1627 39.3524 47.1319 39.3579 47.1009 39.3636V39.8462C47.1009 41.8689 47.1011 43.8916 47.1002 45.9141C47.1002 46.0629 47.1014 46.2124 47.0843 46.3596C47.0673 46.5074 46.9703 46.5965 46.8257 46.6272C46.7826 46.6365 46.7374 46.6393 46.6934 46.6396C46.2349 46.6405 45.7765 46.6474 45.3183 46.6381C45.016 46.6319 44.9204 46.5315 44.902 46.2382C44.8944 46.1196 44.8984 46.0003 44.8984 45.8813C44.8982 42.3715 44.8982 38.8612 44.8989 35.3515C44.8989 35.2029 44.8956 35.0531 44.9119 34.906C44.9306 34.7344 45.0302 34.6415 45.1964 34.6132C45.2399 34.6056 45.2847 34.6027 45.3289 34.6027C45.7725 34.6017 46.216 34.606 46.6595 34.5998C46.8569 34.597 47.0017 34.6682 47.0974 34.8432C47.1471 34.9341 47.2027 35.022 47.255 35.112C48.1771 36.7052 49.1044 38.2953 50.0184 39.8928C50.372 40.5107 50.6951 41.1461 51.033 41.7732C51.0593 41.8218 51.0941 41.8661 51.1208 41.906C51.2257 41.8922 51.2108 41.8184 51.2134 41.767C51.2205 41.6334 51.2176 41.4994 51.2176 41.3656C51.2176 39.3576 51.2174 37.3499 51.2181 35.3422C51.2181 35.2086 51.2134 35.0734 51.2299 34.9415C51.2564 34.7263 51.3648 34.6134 51.5767 34.6091C52.0789 34.5996 52.5818 34.5989 53.0843 34.6103ZM65.9134 38.733C65.9235 38.4659 65.9238 38.1976 65.9143 37.9302C65.8928 37.311 65.6192 36.9327 65.0438 36.7186C64.7503 36.6093 64.4448 36.5562 64.1321 36.5543C63.5999 36.551 63.0676 36.5508 62.5353 36.5531C62.4508 36.5536 62.3665 36.5751 62.2766 36.5874C62.2605 36.6629 62.2378 36.7196 62.2376 36.7765C62.2354 37.8028 62.2354 38.829 62.2378 39.8551C62.2378 39.912 62.2629 39.9686 62.2764 40.0251C62.328 40.0394 62.3701 40.0615 62.4122 40.0615C63.0626 40.0617 63.7137 40.0739 64.3631 40.0496C64.6086 40.0405 64.8594 39.9701 65.0933 39.8863C65.6237 39.696 65.8921 39.2958 65.9134 38.733ZM68.2294 39.1682C68.2268 40.2189 67.7502 40.9826 66.8388 41.4802C66.6844 41.5645 66.5252 41.6402 66.32 41.7445C66.3895 41.9204 66.4402 42.0573 66.4972 42.1916C67.0193 43.4215 67.5426 44.6507 68.0652 45.8804C68.1118 45.9897 68.166 46.0968 68.2006 46.2097C68.2692 46.433 68.1696 46.5861 67.9376 46.6287C67.8941 46.6366 67.8494 46.6397 67.8051 46.6399C67.3173 46.6408 66.8295 46.6366 66.342 46.6432C66.1382 46.6456 66.0049 46.5566 65.9223 46.3773C65.8665 46.2561 65.8109 46.1347 65.7595 46.0114C65.2604 44.82 64.7624 43.6284 64.2633 42.4373C64.2176 42.328 64.1667 42.2209 64.1208 42.1197C63.7946 42.0488 62.762 42.0385 62.2901 42.1014C62.1992 42.2404 62.2324 42.4078 62.2319 42.5651C62.2286 43.6803 62.2309 44.7955 62.2288 45.9107C62.2286 46.059 62.2241 46.2085 62.2016 46.3547C62.1741 46.5325 62.0842 46.6099 61.9053 46.6323C61.8177 46.6432 61.7282 46.6418 61.6397 46.642C61.2554 46.643 60.871 46.6351 60.4869 46.6442C59.9771 46.6558 59.8668 46.558 59.8869 46.0192C59.8886 45.9745 59.8871 45.9299 59.8871 45.8852C59.8871 42.3761 59.8871 38.8668 59.8871 35.3577C59.8871 35.2389 59.8836 35.1197 59.8912 35.0011C59.9103 34.7068 60.0036 34.6197 60.3089 34.6028C60.3827 34.599 60.4568 34.6011 60.5307 34.6011C61.6984 34.6011 62.8662 34.6033 64.0339 34.6004C64.6273 34.5987 65.2142 34.6516 65.7926 34.7871C66.2125 34.8854 66.616 35.0292 66.9845 35.2561C67.7899 35.752 68.2233 36.4684 68.2287 37.4286C68.2321 38.0085 68.2309 38.5885 68.2294 39.1682ZM33.9214 19.2432C33.3178 19.3785 32.7586 19.7144 32.773 20.6431C32.7976 22.1899 32.7796 23.7372 32.7796 25.2843C32.7796 25.5969 32.7742 25.9092 32.782 26.2216C32.7969 26.8261 33.0514 27.197 33.621 27.3975C34.3131 27.6405 35.0176 27.637 35.7104 27.4034C36.304 27.2037 36.5619 26.8285 36.584 26.2037C36.5882 26.0847 36.5861 25.9657 36.5861 25.8466C36.5861 25.0286 36.5861 24.2103 36.5861 23.3922C36.5861 22.5297 36.5863 21.6669 36.5856 20.8041C36.5856 20.67 36.5837 20.5362 36.5773 20.4024C36.5563 19.9615 36.3369 19.6418 35.9572 19.4406C35.7892 19.3518 35.6034 19.2856 35.4181 19.2437C34.9213 19.1316 34.4189 19.1318 33.9214 19.2432ZM31.5984 28.819C30.8496 28.3331 30.4368 27.6515 30.4172 26.7461C30.4108 26.4487 30.411 26.1511 30.411 25.8538C30.4105 24.0243 30.4089 22.1947 30.4131 20.3655C30.4136 20.0836 30.4127 19.7963 30.4654 19.5218C30.5888 18.8801 30.9416 18.378 31.4713 18.0007C31.8886 17.7038 32.3551 17.5164 32.8481 17.4067C33.7195 17.2126 34.6016 17.1564 35.4919 17.25C35.9042 17.2933 36.3132 17.3483 36.7125 17.4643C37.0547 17.5636 37.3842 17.6933 37.6888 17.8812C38.4951 18.379 38.9268 19.0985 38.9332 20.0555C38.9403 21.1712 38.9349 22.2866 38.9349 23.402H38.9363C38.9363 24.4431 38.9386 25.4843 38.9346 26.5254C38.9339 26.7327 38.9292 26.9437 38.8925 27.1468C38.7649 27.8586 38.3808 28.4017 37.7815 28.7959C37.3285 29.0935 36.828 29.2754 36.3021 29.3707C35.126 29.5842 33.9495 29.5854 32.7808 29.3107C32.3614 29.2121 31.9624 29.0552 31.5984 28.819ZM13.8235 20.4445C13.8169 20.5484 13.8188 20.6524 13.8186 20.7564C13.8186 22.4937 13.8183 24.2312 13.819 25.9687C13.819 26.1025 13.8153 26.237 13.8299 26.3694C13.8678 26.7089 14.0048 27.0044 14.2941 27.1944C14.4645 27.3058 14.6559 27.3982 14.8505 27.4562C15.3399 27.6017 15.844 27.6005 16.3422 27.5148C16.5711 27.4753 16.7997 27.3936 17.0094 27.2915C17.399 27.102 17.5978 26.7646 17.6395 26.3351C17.6506 26.2173 17.6456 26.0975 17.6456 25.979C17.6461 25.1176 17.6458 24.2562 17.6456 23.3951C17.6456 22.4742 17.6338 21.5533 17.6494 20.6329C17.6619 19.8982 17.2662 19.4615 16.6528 19.293C16.2364 19.1787 15.8133 19.1275 15.3823 19.1825C15.1044 19.218 14.828 19.2577 14.5677 19.376C14.1073 19.5856 13.8567 19.9377 13.8235 20.4445ZM11.4556 26.6327C11.4473 25.2497 11.453 23.8662 11.453 22.4832C11.453 21.7095 11.4438 20.9359 11.4582 20.1629C11.4634 19.8834 11.4959 19.5963 11.5678 19.327C11.728 18.7268 12.1027 18.2752 12.6163 17.9378C13.0044 17.6826 13.4309 17.5138 13.8799 17.4119C14.7513 17.214 15.6332 17.1588 16.5235 17.2474C16.9505 17.2897 17.3744 17.3478 17.7874 17.4705C18.1722 17.5845 18.54 17.7369 18.8728 17.9657C19.521 18.4111 19.9025 19.0189 19.9702 19.8129C19.9842 19.9753 19.9877 20.1396 19.988 20.3027C19.9896 21.329 19.9887 22.3551 19.9889 23.3815V26.282C19.9889 26.3858 19.9882 26.4901 19.9884 26.5942C19.992 27.7248 19.4578 28.5121 18.4654 29.0059C17.9419 29.2664 17.3803 29.4037 16.8054 29.4599C15.8161 29.5564 14.8273 29.5575 13.8524 29.3161C13.492 29.2269 13.1448 29.1019 12.82 28.92C11.9301 28.4207 11.4615 27.661 11.4556 26.6327ZM83.3087 40.6328C83.3184 40.7511 83.3248 40.8701 83.325 40.9887C83.3265 41.9255 83.3295 42.8624 83.3231 43.7992C83.3215 44.0509 83.3146 44.308 83.2642 44.553C83.1149 45.2784 82.699 45.8177 82.0621 46.1843C81.514 46.4998 80.9138 46.646 80.2932 46.7243C79.5707 46.8152 78.8486 46.8157 78.1262 46.725C77.5658 46.6545 77.021 46.5286 76.5128 46.2712C75.5978 45.8074 75.1283 45.0537 75.0814 44.0295C75.0727 43.8364 75.0772 43.6431 75.0772 43.4495C75.0769 41.4868 75.0743 39.524 75.0798 37.5611C75.0807 37.2804 75.1013 36.9961 75.1489 36.7194C75.2663 36.0371 75.6421 35.52 76.2134 35.1443C76.5502 34.9229 76.9182 34.771 77.3097 34.6765C78.5979 34.3663 79.8857 34.3701 81.1703 34.6936C81.5601 34.7915 81.9265 34.951 82.2579 35.1819C82.9064 35.6345 83.2621 36.2604 83.3108 37.052C83.3317 37.393 83.3286 37.7361 83.3172 38.0775C83.3078 38.3591 83.2199 38.4486 82.9333 38.4558C82.446 38.4681 81.9578 38.4689 81.4702 38.4551C81.1692 38.4462 81.0887 38.3498 81.062 38.0417C81.0504 37.9087 81.0503 37.7744 81.0432 37.6411C81.0139 37.0849 80.7164 36.7375 80.208 36.5511C79.9257 36.4478 79.6303 36.4235 79.3354 36.4164C78.9958 36.4083 78.6559 36.4276 78.3284 36.5376C77.7641 36.7271 77.4794 37.0963 77.4477 37.687C77.4422 37.7908 77.4439 37.8953 77.4439 37.9991C77.4437 39.754 77.4437 41.5087 77.4439 43.2633C77.4439 43.3821 77.4413 43.5016 77.451 43.62C77.4929 44.128 77.7509 44.4771 78.2202 44.6701C78.4848 44.7789 78.7648 44.8068 79.0448 44.8223C79.4301 44.8435 79.8132 44.8208 80.1836 44.6978C80.7164 44.5204 81.0262 44.163 81.0442 43.5854C81.0551 43.229 81.0515 42.8722 81.0504 42.5153C81.0501 42.4596 81.0262 42.4034 81.0089 42.3272C80.8852 42.3148 80.7711 42.2948 80.657 42.2936C80.2875 42.2893 79.9179 42.2924 79.5484 42.2915C79.445 42.2912 79.3408 42.2939 79.2381 42.2843C78.9846 42.2612 78.8883 42.1755 78.881 41.9229C78.8692 41.5218 78.871 41.1201 78.881 40.7187C78.8869 40.4923 78.9825 40.3923 79.1962 40.3573C79.2975 40.3406 79.4024 40.3423 79.5056 40.3421C80.5699 40.3411 81.634 40.3404 82.6983 40.3433C82.8301 40.3435 82.9646 40.3521 83.0926 40.3806C83.2159 40.4083 83.2978 40.4983 83.3087 40.6328ZM94.0408 35.2946C94.041 38.8491 94.041 42.4032 94.0408 45.9577C94.0408 46.0617 94.0443 46.1665 94.0349 46.2698C94.0126 46.5136 93.9109 46.6143 93.6749 46.6379C93.6602 46.6393 93.6455 46.6398 93.6306 46.64C93.1279 46.6403 92.6252 46.6467 92.1228 46.6384C91.8274 46.6338 91.7228 46.5296 91.6949 46.2422C91.6835 46.1244 91.6889 46.0046 91.6889 45.8856C91.6887 44.5918 91.6892 43.2979 91.6882 42.0041C91.688 41.843 91.6795 41.6818 91.6745 41.5027C91.5675 41.4835 91.4842 41.4556 91.4004 41.4554C90.3214 41.452 89.2422 41.4523 88.163 41.4542C88.0773 41.4544 87.9919 41.4744 87.9149 41.4842C87.8094 41.6518 87.8472 41.8196 87.8468 41.9787C87.8435 43.2874 87.8451 44.5961 87.8446 45.9048C87.8446 46.0239 87.8484 46.1432 87.8399 46.2617C87.8203 46.5338 87.7296 46.6184 87.4489 46.6396C87.4342 46.6407 87.4193 46.6412 87.4047 46.6412C86.9169 46.6412 86.4289 46.6474 85.9411 46.6384C85.6334 46.6329 85.5456 46.5431 85.5207 46.2436C85.5096 46.1108 85.5122 45.9763 85.5122 45.8427C85.5117 42.3624 85.5117 38.8824 85.5127 35.4024C85.5127 35.2393 85.5132 35.0746 85.5319 34.9127C85.5548 34.7141 85.65 34.6317 85.8504 34.6075C85.8942 34.6025 85.9389 34.602 85.9832 34.602C86.4414 34.6015 86.8998 34.5965 87.358 34.6029C87.7507 34.6082 87.8288 34.6879 87.8435 35.0677C87.8475 35.1715 87.8449 35.2758 87.8449 35.3798C87.8449 36.5547 87.8444 37.7296 87.8454 38.9043C87.8456 39.0669 87.852 39.2291 87.8558 39.4086C87.9507 39.4405 87.9919 39.466 88.033 39.466C89.1565 39.4707 90.28 39.4731 91.4035 39.4738C91.4755 39.4738 91.5472 39.4555 91.6227 39.4453C91.7209 39.2855 91.6866 39.1186 91.6871 38.9608C91.6901 37.7413 91.6882 36.5219 91.6897 35.3024C91.6897 35.1691 91.6887 35.0334 91.7107 34.9027C91.7427 34.712 91.848 34.6125 92.044 34.6091C92.5909 34.6003 93.1379 34.5991 93.6848 34.6087C93.9014 34.6125 94.0069 34.7248 94.0308 34.9382C94.0439 35.0558 94.0408 35.1758 94.0408 35.2946ZM8.81442 34.6045C9.12139 34.6112 9.21227 34.7 9.24186 34.9959C9.25345 35.114 9.25061 35.2338 9.25061 35.3526C9.25109 38.8623 9.25156 42.3719 9.2499 45.8817C9.2499 46.0447 9.24091 46.2085 9.22103 46.3702C9.20257 46.5202 9.10198 46.6045 8.95548 46.629C8.89773 46.6385 8.83785 46.6411 8.77892 46.6411C8.30581 46.6421 7.83293 46.6421 7.35982 46.6409C7.30065 46.6409 7.24077 46.6383 7.18326 46.6266C7.03794 46.5973 6.94327 46.5066 6.92528 46.3585C6.90919 46.2264 6.90895 46.0916 6.90895 45.9581C6.90777 44.6346 6.90919 43.3109 6.90682 41.9874C6.90659 41.8274 6.93167 41.6624 6.85783 41.4888C6.78423 41.4767 6.71417 41.4555 6.64435 41.4553C5.47826 41.4517 4.3124 41.4496 3.16003 41.455C3.02891 41.6283 3.07293 41.7979 3.07246 41.955C3.06843 43.2637 3.07033 44.5724 3.07009 45.8812C3.07009 46.0002 3.07482 46.1197 3.06512 46.2378C3.04122 46.5266 2.93755 46.633 2.64242 46.6385C2.13996 46.6471 1.63703 46.6473 1.13457 46.638C0.842035 46.6326 0.742158 46.5238 0.718728 46.2312C0.712811 46.1571 0.715414 46.0826 0.715414 46.0081C0.715177 42.424 0.715177 38.84 0.715651 35.2557C0.715651 35.1519 0.712101 35.0466 0.725118 34.944C0.752099 34.7293 0.858366 34.6128 1.06924 34.6093C1.61596 34.5995 2.16315 34.5995 2.71011 34.609C2.92264 34.6126 3.03151 34.7257 3.05802 34.9397C3.07435 35.0719 3.06962 35.2069 3.06985 35.3407C3.07056 36.5303 3.06985 37.72 3.07056 38.9097C3.07056 39.0718 3.07624 39.2335 3.07956 39.4121C3.18298 39.4363 3.26535 39.4721 3.34771 39.4723C4.44162 39.4761 5.53553 39.4754 6.62968 39.4732C6.70092 39.473 6.77216 39.4525 6.84197 39.4418C6.93948 39.2923 6.90635 39.1404 6.90659 38.9966C6.90919 37.7772 6.90801 36.5577 6.90848 35.3383C6.90872 35.2045 6.90517 35.0697 6.91818 34.9371C6.93949 34.72 7.0396 34.6257 7.26231 34.6069C7.37994 34.5969 7.49875 34.6009 7.61708 34.6009C8.01612 34.6009 8.41539 34.5955 8.81442 34.6045ZM9.23139 17.6808C9.24702 17.783 9.24844 17.8879 9.25009 17.9918C9.25293 18.1703 9.25104 18.3486 9.25104 18.5272C9.25104 21.8579 9.25128 25.1884 9.25033 28.5192C9.25033 28.6975 9.25104 28.8768 9.23139 29.0537C9.20938 29.2515 9.11045 29.3463 8.92088 29.3751C8.83378 29.3884 8.74384 29.3853 8.65533 29.3856C8.27097 29.3865 7.88661 29.3872 7.50225 29.3853C7.3993 29.3846 7.29421 29.3848 7.19363 29.3656C7.02914 29.3341 6.93731 29.231 6.92003 29.0599C6.90654 28.927 6.90867 28.7927 6.90867 28.6589C6.90796 27.3504 6.90867 26.0417 6.90772 24.7332C6.90749 24.5723 6.90015 24.4116 6.89565 24.2266C6.7527 24.2095 6.63886 24.1864 6.52431 24.183C4.86143 24.1352 3.47002 24.1599 3.11643 24.2418C3.03691 24.3928 3.07241 24.5594 3.07217 24.7192C3.06886 26.0279 3.07052 27.3364 3.06981 28.6449C3.06981 28.7784 3.07383 28.9137 3.05821 29.0456C3.03549 29.2341 2.92993 29.3394 2.74675 29.3715C2.67456 29.3844 2.59977 29.3851 2.52616 29.3853C2.09731 29.3865 1.66869 29.3865 1.24007 29.3851C1.16647 29.3848 1.09168 29.3825 1.01973 29.3689C0.858082 29.3375 0.754892 29.2375 0.730514 29.073C0.715367 28.9706 0.716077 28.8656 0.716077 28.7615C0.715367 25.1632 0.715367 21.5646 0.715367 17.9663C0.715367 17.907 0.71371 17.8472 0.717734 17.788C0.739744 17.4696 0.834178 17.3725 1.1615 17.3677C1.64929 17.3604 2.13707 17.3604 2.62486 17.3677C2.94792 17.3725 3.04567 17.4725 3.06673 17.7913C3.07454 17.9099 3.07004 18.0291 3.07004 18.1482C3.07028 19.3226 3.06957 20.4975 3.07099 21.6722C3.07099 21.8329 3.08022 21.9941 3.0859 22.1755C3.17418 22.1941 3.24282 22.2208 3.31121 22.221C4.4198 22.2239 5.52838 22.2241 6.6372 22.222C6.70797 22.222 6.77874 22.2003 6.83885 22.1905C6.94062 22.0396 6.9063 21.8865 6.90654 21.742C6.90938 20.5078 6.90772 19.2733 6.90891 18.0394C6.90891 17.9058 6.90843 17.7708 6.92595 17.6389C6.94583 17.4896 7.04215 17.4004 7.18818 17.3777C7.2606 17.3666 7.33539 17.3658 7.40924 17.3658C7.85253 17.3647 8.29606 17.3649 8.73959 17.3656C8.79852 17.3656 8.85816 17.3649 8.91662 17.3716C9.11708 17.3946 9.19921 17.4718 9.23139 17.6808ZM113.282 42.5744C113.285 43.0205 113.289 43.4667 113.281 43.9126C113.262 44.9954 112.765 45.7796 111.806 46.2667C111.393 46.476 110.953 46.6017 110.499 46.6753C109.362 46.8593 108.232 46.841 107.114 46.5422C106.726 46.4384 106.361 46.2787 106.027 46.0525C105.329 45.5801 104.956 44.9152 104.907 44.0762C104.882 43.661 104.9 43.2438 104.9 42.8272C104.9 42.7829 104.902 42.7379 104.909 42.6941C104.945 42.482 105.048 42.3749 105.261 42.3651C105.527 42.3532 105.793 42.3622 106.059 42.3622V42.3558C106.266 42.3558 106.473 42.3515 106.68 42.3568C107.116 42.3672 107.18 42.4356 107.189 42.8893C107.193 43.0974 107.185 43.3057 107.193 43.5136C107.198 43.6464 107.216 43.7798 107.241 43.9105C107.296 44.2052 107.469 44.4214 107.714 44.5814C107.776 44.6216 107.841 44.6604 107.91 44.6849C108.691 44.963 109.477 44.9761 110.251 44.678C110.687 44.51 110.932 44.1669 110.953 43.686C110.962 43.4631 110.959 43.24 110.957 43.017C110.954 42.6789 110.809 42.4056 110.531 42.228C110.284 42.0694 110.02 41.927 109.747 41.8197C108.881 41.4782 108.007 41.1568 107.136 40.8273C106.998 40.775 106.859 40.7245 106.723 40.6676C105.948 40.345 105.454 39.7657 105.218 38.9644C105.168 38.796 105.15 38.6141 105.146 38.4377C105.135 38.0363 105.136 37.6347 105.143 37.2333C105.162 36.1445 105.671 35.371 106.645 34.9058C106.993 34.7389 107.363 34.6361 107.744 34.5713C108.851 34.383 109.951 34.4042 111.039 34.697C111.413 34.7977 111.764 34.9522 112.083 35.1748C112.686 35.5962 113.055 36.1681 113.132 36.9069C113.169 37.2607 113.179 37.619 113.175 37.9749C113.169 38.3727 113.056 38.4815 112.67 38.4889C112.227 38.4975 111.784 38.4915 111.34 38.4899C111.281 38.4899 111.221 38.4844 111.164 38.4725C111.021 38.4422 110.924 38.3594 110.904 38.2073C110.89 38.1046 110.882 38.0008 110.876 37.897C110.869 37.7637 110.87 37.6294 110.862 37.4961C110.829 36.9945 110.564 36.6574 110.101 36.5031C109.466 36.2917 108.818 36.2926 108.184 36.5057C107.701 36.6678 107.439 37.023 107.422 37.544C107.417 37.6923 107.418 37.8413 107.422 37.9899C107.432 38.3511 107.611 38.6108 107.919 38.7777C108.074 38.8617 108.243 38.921 108.409 38.9813C109.327 39.3124 110.244 39.6436 111.164 39.9679C111.53 40.0969 111.866 40.28 112.183 40.5C112.904 41.0004 113.276 41.6904 113.282 42.5744ZM75.8948 29.4904C75.2717 29.5209 74.6542 29.4728 74.0485 29.3154C73.6166 29.2031 73.2041 29.044 72.832 28.7917C72.105 28.2991 71.7282 27.6094 71.7038 26.7297C71.6929 26.3285 71.6953 25.9264 71.705 25.5252C71.7126 25.214 71.8281 25.0905 72.1381 25.0819C72.611 25.069 73.0846 25.0695 73.5574 25.0817C73.8725 25.09 73.9754 25.205 73.9865 25.5228C73.9953 25.7754 73.9853 26.0285 73.9913 26.2813C74.0062 26.9134 74.2675 27.286 74.8634 27.4751C75.5287 27.6863 76.2023 27.6794 76.8721 27.4815C77.3537 27.3391 77.7707 26.9844 77.7556 26.2987C77.7518 26.1202 77.753 25.9416 77.7544 25.7633C77.757 25.4228 77.61 25.1526 77.3376 24.969C77.1184 24.8212 76.8815 24.6912 76.6373 24.5912C76.0901 24.3669 75.5337 24.166 74.9806 23.9567C74.4966 23.7736 74.0104 23.5965 73.5281 23.4087C73.0008 23.2032 72.5906 22.8506 72.2905 22.3692C72.083 22.0357 71.9492 21.6745 71.944 21.2779C71.9379 20.7872 71.926 20.2955 71.9526 19.806C72.0013 18.9051 72.4347 18.2311 73.2117 17.7828C73.6005 17.5586 74.0218 17.4238 74.4611 17.3436C75.612 17.1338 76.7554 17.1524 77.8867 17.469C78.2883 17.5814 78.663 17.7576 78.9946 18.0157C79.5631 18.458 79.8911 19.0389 79.941 19.7615C79.9666 20.1313 79.9609 20.5046 79.9507 20.8757C79.9443 21.1067 79.8556 21.1902 79.6284 21.2283C79.5271 21.2452 79.4225 21.2481 79.3193 21.249C78.9792 21.2514 78.6391 21.2502 78.299 21.2495C78.2251 21.2493 78.1508 21.25 78.0775 21.2421C77.7847 21.2114 77.6914 21.1176 77.6716 20.8179C77.6597 20.64 77.6692 20.461 77.6607 20.2827C77.6363 19.762 77.367 19.4108 76.8834 19.2554C76.2629 19.0556 75.6276 19.0589 75.0064 19.2537C74.5415 19.3992 74.2623 19.7263 74.2242 20.2296C74.2107 20.4067 74.2071 20.586 74.217 20.7634C74.2383 21.14 74.4395 21.4021 74.7687 21.5647C74.9138 21.6366 75.0686 21.69 75.2215 21.745C76.1396 22.0752 77.0583 22.4035 77.9769 22.732C78.3264 22.8573 78.6611 23.0125 78.9678 23.2246C79.6741 23.7129 80.058 24.3831 80.0762 25.2497C80.0864 25.7257 80.0878 26.2021 80.0762 26.678C80.0494 27.7829 79.5181 28.5633 78.534 29.0352C77.953 29.3138 77.3298 29.4388 76.6927 29.4871C76.4281 29.5071 76.1609 29.4904 75.8948 29.4904ZM19.5608 34.604C19.8687 34.6097 19.9539 34.6921 19.9883 34.9938C20.0017 35.1114 20.0003 35.2311 20.0003 35.3499C20.0008 38.1152 20.0015 40.8805 19.9991 43.6461C19.9989 43.8537 19.9828 44.062 19.961 44.2684C19.8865 44.9743 19.5462 45.5283 18.9888 45.9524C18.6058 46.2435 18.1725 46.4307 17.711 46.5502C16.8739 46.7666 16.0225 46.8364 15.1615 46.7716C14.6754 46.7354 14.1907 46.6856 13.7192 46.5471C13.363 46.4428 13.0194 46.3107 12.7018 46.1159C11.8919 45.6191 11.4791 44.89 11.4557 43.9396C11.446 43.5535 11.4531 43.1666 11.4531 42.7799C11.4531 41.7095 11.4531 40.6391 11.4531 39.5687C11.4531 38.1412 11.4526 36.7139 11.454 35.2866C11.4542 35.1535 11.4509 35.0169 11.4774 34.8876C11.5096 34.7302 11.6145 34.6274 11.7837 34.6102C11.8277 34.6059 11.872 34.6024 11.9162 34.6024C12.404 34.6019 12.8918 34.5957 13.3794 34.604C13.6993 34.6095 13.7999 34.7164 13.8163 35.0331C13.8224 35.1516 13.8184 35.2709 13.8184 35.3897C13.8184 37.9619 13.8184 40.5339 13.8186 43.1061C13.8186 43.2547 13.8155 43.4037 13.8243 43.5518C13.8548 44.0596 14.1052 44.4144 14.5668 44.6229C14.8411 44.7472 15.1305 44.791 15.4266 44.8151C15.8429 44.8486 16.2526 44.8217 16.6559 44.7086C17.266 44.5377 17.6733 44.1115 17.6655 43.3763C17.6492 41.86 17.6608 40.3432 17.6608 38.8269C17.6608 37.6227 17.6594 36.4182 17.6617 35.2142C17.6627 34.6605 17.7214 34.6038 18.275 34.6014C18.7036 34.5993 19.1324 34.5959 19.5608 34.604ZM69.1528 17.2881C69.5628 17.2931 69.6307 17.3676 69.6406 17.7926C69.643 17.8969 69.6413 18.0009 69.6413 18.1052V22.2554C69.6413 23.6539 69.6432 25.0522 69.6394 26.4504C69.6387 26.6728 69.6326 26.8987 69.5921 27.1158C69.469 27.777 69.1121 28.2908 68.5666 28.6736C68.186 28.9405 67.7647 29.1212 67.3153 29.2269C66.0275 29.5297 64.7367 29.5297 63.449 29.2281C62.9995 29.1229 62.5766 28.9443 62.1977 28.6748C61.513 28.1877 61.1421 27.5268 61.1244 26.6761C61.1206 26.4978 61.1225 26.3192 61.1225 26.1407C61.1222 23.4332 61.122 20.7255 61.1229 18.0181C61.1232 17.8698 61.1239 17.7202 61.1404 17.5731C61.1568 17.4238 61.2559 17.335 61.3987 17.3041C61.4701 17.2888 61.5454 17.2879 61.619 17.2877C62.0774 17.2862 62.5361 17.2927 62.9943 17.2848C63.2805 17.2803 63.47 17.3557 63.4821 17.7688C63.4861 17.9024 63.4842 18.0367 63.4842 18.1702C63.4845 20.7143 63.4842 23.258 63.485 25.8019C63.485 25.9652 63.4857 26.1292 63.4956 26.2923C63.5202 26.6949 63.7152 26.9968 64.0579 27.1975C64.1841 27.2718 64.3221 27.3356 64.4629 27.3732C65.0901 27.5406 65.7206 27.5327 66.3466 27.3634C66.4732 27.3294 66.5951 27.268 66.7108 27.2035C67.0415 27.0192 67.2478 26.7399 67.2947 26.3587C67.3184 26.1676 67.3259 25.9733 67.3262 25.7807C67.3281 23.222 67.3274 20.6634 67.3276 18.1047C67.3276 17.9707 67.3236 17.8367 67.3314 17.7031C67.3501 17.3934 67.4353 17.3081 67.7333 17.2886C67.7626 17.2867 67.7924 17.2869 67.822 17.2869C68.2655 17.2869 68.7093 17.2829 69.1528 17.2881ZM42.357 28.9333C41.5338 28.4572 41.0938 27.7427 41.0739 26.7851C41.0602 26.1159 41.0702 25.4464 41.0699 24.7769C41.0694 24.301 41.0697 23.8249 41.0699 23.3489C41.0699 22.2926 41.0676 21.2367 41.0716 20.1803C41.0725 19.9582 41.0751 19.7318 41.1154 19.5142C41.2533 18.769 41.6642 18.2112 42.312 17.8271C42.7778 17.5505 43.2885 17.3996 43.8158 17.3162C44.847 17.1534 45.8782 17.1631 46.9018 17.3853C47.3229 17.4767 47.7259 17.6219 48.0966 17.8476C48.8184 18.2864 49.2212 18.9347 49.296 19.7734C49.3313 20.172 49.3159 20.5763 49.3064 20.9777C49.3 21.25 49.1919 21.3569 48.9237 21.3622C48.4359 21.3714 47.9477 21.3724 47.4599 21.3626C47.1534 21.3567 47.0509 21.2388 47.0365 20.9165C47.0299 20.7679 47.0379 20.6189 47.0322 20.4703C47.0095 19.8744 46.7373 19.4939 46.1705 19.3097C45.5334 19.1028 44.8875 19.1042 44.2522 19.3175C43.7351 19.4913 43.4584 19.8639 43.4388 20.4186C43.435 20.5227 43.435 20.6267 43.435 20.731C43.4348 22.4864 43.4345 24.2417 43.4355 25.9969C43.4355 26.1454 43.435 26.2949 43.4494 26.4426C43.488 26.8432 43.692 27.1375 44.0423 27.3275C44.1327 27.3765 44.2288 27.4211 44.3275 27.4482C44.9253 27.6113 45.5293 27.622 46.1229 27.4465C46.8071 27.2439 47.0372 26.7563 47.0339 26.2288C47.0325 25.9909 47.0273 25.7524 47.0398 25.515C47.054 25.2457 47.1574 25.141 47.4291 25.1362C47.9318 25.1272 48.4348 25.1269 48.9375 25.1364C49.2103 25.1414 49.3024 25.2381 49.3076 25.5259C49.3161 25.9869 49.332 26.4497 49.2998 26.9087C49.2395 27.766 48.8407 28.4322 48.1034 28.8826C47.7718 29.0852 47.4142 29.2231 47.0391 29.3159C46.6074 29.4231 46.1703 29.4912 45.7248 29.5038C44.9251 29.5262 44.1282 29.5235 43.3455 29.3193C43.0005 29.2293 42.6663 29.1121 42.357 28.9333ZM38.8829 42.1787C39.2436 42.1691 39.6102 42.231 39.9839 42.1296C39.9742 42.0498 39.9728 41.9915 39.9593 41.936C39.6189 40.5397 39.2774 39.1434 38.9352 37.7473C38.9321 37.7342 38.9196 37.7201 38.9075 37.7137C38.899 37.7089 38.8841 37.7158 38.8512 37.7201C38.8308 37.7604 38.7958 37.8087 38.7806 37.8625C38.4779 38.9496 37.8365 41.7473 37.8015 42.1675C38.1785 42.1927 38.5317 42.1877 38.8829 42.1787ZM40.8376 37.2185C41.6887 40.1271 42.5395 43.0357 43.3885 45.9446C43.4299 46.0863 43.4644 46.232 43.48 46.3784C43.494 46.5081 43.4043 46.6081 43.276 46.626C43.174 46.64 43.0697 46.6412 42.9665 46.6417C42.5672 46.6434 42.1679 46.6448 41.7687 46.6417C41.2792 46.6379 41.2039 46.5819 41.0579 46.0889C40.9062 45.5763 40.7649 45.0604 40.6158 44.5466C40.5706 44.3916 40.515 44.2392 40.4544 44.0566H37.2008C37.1554 44.1695 37.1031 44.2738 37.0709 44.3837C36.9206 44.897 36.776 45.4118 36.6293 45.926C36.6087 45.9975 36.5888 46.0694 36.5658 46.1398C36.4271 46.5681 36.341 46.6362 35.9029 46.6412C35.5185 46.6455 35.1339 46.6424 34.7496 46.6417C34.6755 46.6417 34.601 46.6429 34.5281 46.6334C34.3311 46.6079 34.2353 46.4848 34.271 46.2955C34.2928 46.1791 34.3295 46.0651 34.3631 45.9513C35.4135 42.3893 36.4643 38.8272 37.5156 35.2655C37.7049 34.6244 37.7374 34.6017 38.4143 34.601C38.7989 34.6006 39.1835 34.5967 39.5678 34.6027C39.9728 34.6087 40.0852 34.6865 40.2061 35.0815C40.4236 35.7917 40.6291 36.5057 40.8376 37.2185ZM55.2205 24.8946C55.5812 24.8851 55.9485 24.9527 56.3335 24.8375C55.9726 23.3635 55.6169 21.9115 55.2612 20.4592C55.2351 20.4618 55.2089 20.4642 55.1826 20.4665C55.1554 20.5334 55.1187 20.5977 55.1021 20.667C54.785 21.9798 54.4695 23.2928 54.1564 24.6065C54.1374 24.6856 54.1415 24.7701 54.1327 24.877C54.5154 24.9146 54.869 24.9036 55.2205 24.8946ZM56.9875 19.3511C57.8987 22.459 58.8103 25.5667 59.7208 28.6748C59.7582 28.8029 59.7961 28.9324 59.8138 29.0641C59.8368 29.2358 59.7452 29.3453 59.5708 29.3734C59.4981 29.3848 59.4233 29.385 59.3497 29.3853C58.9209 29.3865 58.4918 29.386 58.0629 29.3857C58.004 29.3855 57.9443 29.3869 57.8857 29.3805C57.6949 29.3586 57.5491 29.2674 57.4783 29.0827C57.4251 28.9443 57.3799 28.8024 57.3387 28.6598C57.1863 28.132 57.0379 27.6025 56.8857 27.0742C56.8616 26.9904 56.8263 26.9095 56.7896 26.8095C56.3705 26.7581 53.9561 26.7566 53.5301 26.8061C53.4923 26.8978 53.4385 27.0011 53.4061 27.1107C53.2553 27.6237 53.0999 28.1358 52.9664 28.6536C52.7709 29.4115 52.6213 29.3962 51.979 29.3869C51.6834 29.3827 51.3875 29.3874 51.0917 29.385C51.0034 29.3841 50.9135 29.3826 50.8275 29.3648C50.6583 29.3298 50.5715 29.2048 50.6025 29.0396C50.6242 28.9232 50.66 28.8089 50.6936 28.6951C51.7458 25.1332 52.7986 21.5712 53.8518 18.0098C54.035 17.3901 54.0688 17.366 54.7182 17.3648C55.0879 17.3644 55.4576 17.3627 55.8273 17.3653C56.3345 17.3691 56.4249 17.4372 56.575 17.9391C56.7155 18.4088 56.8495 18.8805 56.9875 19.3511ZM103.412 34.611C103.615 34.6315 103.718 34.7208 103.723 34.92C103.736 35.3507 103.737 35.7824 103.724 36.2131C103.717 36.4316 103.607 36.5226 103.382 36.5442C103.279 36.554 103.175 36.5504 103.071 36.5506C102.48 36.5511 101.889 36.5499 101.297 36.5518C101.153 36.5523 101.008 36.564 100.809 36.5728C100.805 36.8099 100.799 36.9866 100.799 37.1632C100.798 40.0335 100.798 42.9041 100.798 45.7748C100.798 45.9084 100.801 46.0427 100.796 46.1762C100.782 46.5393 100.699 46.6264 100.352 46.6402C100.189 46.6469 100.027 46.6424 99.8637 46.6424C99.5386 46.6422 99.2131 46.6483 98.8882 46.6388C98.5713 46.6295 98.4619 46.5224 98.4378 46.2131C98.4274 46.0803 98.4333 45.9455 98.4333 45.812C98.433 42.9264 98.4333 40.0411 98.4328 37.1556C98.4326 36.9787 98.4276 36.8018 98.4255 36.654C98.3015 36.5285 98.1781 36.5528 98.0631 36.5523C97.3978 36.5502 96.7323 36.5535 96.067 36.5499C95.5731 36.5471 95.4985 36.4721 95.4926 35.9835C95.4888 35.6709 95.4855 35.3586 95.4945 35.0465C95.5042 34.717 95.6019 34.6201 95.9165 34.6034C96.0199 34.5977 96.1236 34.601 96.227 34.601C98.4891 34.6008 100.751 34.6008 103.013 34.6012C103.146 34.6012 103.28 34.5974 103.412 34.611ZM86.0215 29.3807C85.963 29.3873 85.9034 29.3857 85.8442 29.3857C85.4303 29.3859 85.0161 29.3878 84.6021 29.3847C84.4996 29.3838 84.3948 29.3761 84.2956 29.3523C84.1543 29.3178 84.0618 29.2193 84.0476 29.0716C84.0334 28.924 84.0341 28.7748 84.0341 28.6262C84.0334 25.7257 84.0334 22.8254 84.0334 19.9251V19.3365C83.827 19.3268 83.6824 19.3151 83.5378 19.3146C82.917 19.3123 82.296 19.3163 81.6749 19.3125C81.1613 19.3094 81.0972 19.2413 81.0929 18.7113C81.0906 18.399 81.0866 18.0864 81.0963 17.7743C81.106 17.4645 81.1919 17.3845 81.4977 17.3671C81.5713 17.3629 81.6454 17.3648 81.7194 17.3648C84.0407 17.3648 86.362 17.3645 88.6836 17.3652C88.8017 17.3652 88.9207 17.3631 89.0379 17.3769C89.2088 17.3971 89.3193 17.4921 89.3236 17.6636C89.3347 18.1092 89.3337 18.5554 89.3209 19.0009C89.3164 19.1668 89.1965 19.2699 89.035 19.2966C88.9195 19.3156 88.7996 19.3125 88.6815 19.3127C88.09 19.3144 87.4986 19.3125 86.9071 19.3144C86.7615 19.3149 86.6162 19.3242 86.4498 19.3304C86.4309 19.4318 86.407 19.5149 86.402 19.5989C86.3945 19.7325 86.399 19.8665 86.399 20.0006C86.399 22.8711 86.399 25.7419 86.3987 28.6124C86.3987 28.7462 86.4042 28.8809 86.3914 29.0136C86.3691 29.2469 86.2577 29.3528 86.0215 29.3807ZM22.5506 29.3807C22.344 29.3581 22.2322 29.2497 22.2046 29.0395C22.1911 28.9371 22.1956 28.8319 22.1956 28.7281C22.1953 25.1614 22.1951 21.5947 22.1956 18.0278C22.1956 17.9093 22.192 17.789 22.209 17.6721C22.2363 17.4845 22.3456 17.3752 22.5354 17.3726C23.0966 17.3648 23.658 17.3645 24.2191 17.3745C24.4118 17.3779 24.5098 17.4829 24.5346 17.6838C24.5528 17.8305 24.5493 17.9804 24.5493 18.1288C24.55 21.0267 24.5498 23.9246 24.5502 26.8227C24.5502 26.9992 24.5554 27.1756 24.559 27.4046C24.7812 27.4132 24.9415 27.4248 25.1015 27.4251C26.1208 27.4267 27.1404 27.4251 28.1598 27.427C28.307 27.4272 28.4558 27.4296 28.6016 27.4482C28.8026 27.4737 28.888 27.5639 28.9013 27.7682C28.9138 27.9605 28.9084 28.1543 28.9084 28.3474C28.9086 28.5705 28.9143 28.7936 28.9022 29.0159C28.8906 29.2316 28.7886 29.3385 28.577 29.3721C28.4757 29.3878 28.3709 29.3857 28.2677 29.3857C26.4507 29.3861 24.6335 29.3861 22.8164 29.3859C22.7278 29.3859 22.6384 29.3902 22.5506 29.3807ZM72.3654 34.6043C72.6636 34.6109 72.7659 34.7093 72.795 34.9981C72.807 35.1159 72.8021 35.2357 72.8021 35.3547C72.8023 38.8657 72.8026 42.3766 72.8014 45.8881C72.8014 46.0364 72.8023 46.1864 72.7803 46.3326C72.751 46.5285 72.6497 46.6292 72.4542 46.6326C71.907 46.6428 71.3595 46.6447 70.8128 46.6342C70.5738 46.6299 70.4765 46.5152 70.4578 46.2671C70.4479 46.134 70.4519 45.9995 70.4519 45.8657C70.4517 44.1101 70.4517 42.3547 70.4517 40.5991C70.4517 38.8585 70.4517 37.1179 70.4519 35.3771C70.4519 35.2435 70.4479 35.109 70.4578 34.9759C70.4765 34.7276 70.574 34.6257 70.8126 34.6067C70.9451 34.5962 71.0786 34.6009 71.2119 34.6009C71.5962 34.6009 71.9811 34.5957 72.3654 34.6043Z" fill="#787899"/>
<path fill-rule="evenodd" clip-rule="evenodd" d="M43.192 51.8744C43.3598 51.8977 43.4597 52.0003 43.4637 52.1755C43.4739 52.606 43.4758 53.0376 43.4611 53.4681C43.4542 53.6678 43.3489 53.7538 43.1444 53.7688C42.9825 53.7807 42.8192 53.7764 42.6566 53.7764C35.8108 53.7766 28.9645 53.7766 22.1185 53.7766C15.2724 53.7766 8.42638 53.7766 1.58033 53.7764C1.41774 53.7764 1.25467 53.7811 1.09278 53.7707C0.881432 53.7571 0.775638 53.6528 0.739901 53.4421C0.73493 53.4128 0.732564 53.3831 0.732327 53.3533C0.731617 52.9964 0.72286 52.6391 0.73422 52.2827C0.743451 51.992 0.858238 51.8827 1.1413 51.8606C1.24425 51.8525 1.34815 51.857 1.45158 51.857C15.2178 51.857 28.9837 51.8567 42.7496 51.8575C42.8973 51.8575 43.0464 51.8539 43.192 51.8744ZM58.807 52.2861C58.8127 52.4049 58.8093 52.524 58.8093 52.643C58.8093 56.1233 58.8096 59.6035 58.8091 63.084C58.8091 63.2328 58.8129 63.3819 58.7999 63.5299C58.7833 63.7197 58.6799 63.8275 58.4887 63.8444C58.3126 63.8599 58.1343 63.8544 57.9571 63.8549C57.6317 63.8556 57.3062 63.8609 56.9813 63.8509C56.7008 63.8425 56.6104 63.7544 56.5839 63.4792C56.5699 63.3316 56.574 63.1821 56.574 63.0335C56.5732 61.1891 56.5742 59.3447 56.5725 57.5006C56.5725 57.327 56.5953 57.1487 56.5316 56.9842C56.3995 56.9706 56.404 57.0653 56.3865 57.1242C55.9569 58.5657 55.317 59.9249 54.7726 61.3215C54.7241 61.446 54.6701 61.5684 54.6122 61.6886C54.5137 61.8931 54.3509 62.0134 54.1232 62.0167C53.6948 62.0227 53.2662 62.0227 52.8376 62.0165C52.6082 62.0129 52.4513 61.8872 52.3559 61.681C52.3249 61.6136 52.2951 61.5455 52.2665 61.477C51.7825 60.3275 51.2966 59.179 50.8168 58.0277C50.7255 57.8091 50.6606 57.5796 50.5797 57.3565C50.5411 57.2508 50.5302 57.1294 50.4202 57.0289C50.3328 57.1803 50.3643 57.3287 50.3638 57.4687C50.361 58.3757 50.3624 59.2831 50.3624 60.1901C50.3622 61.1718 50.3631 62.1534 50.362 63.135C50.3612 63.8194 50.3248 63.8542 49.6257 63.8552C49.3154 63.8556 49.0046 63.859 48.6941 63.854C48.2745 63.8468 48.1978 63.7699 48.1867 63.3638C48.1843 63.2745 48.186 63.1852 48.186 63.0959C48.186 59.6009 48.186 56.1056 48.1862 52.6104C48.1862 52.4768 48.1817 52.3423 48.1921 52.2092C48.2087 51.9954 48.3119 51.8923 48.5261 51.864C48.5843 51.8562 48.6442 51.8576 48.7031 51.8576C49.0728 51.8569 49.4429 51.8681 49.8119 51.8538C50.1042 51.8426 50.2727 51.9628 50.3878 52.2335C50.8171 53.2449 51.2625 54.2493 51.7015 55.2566C52.0693 56.1004 52.4414 56.9425 52.8018 57.7893C52.9879 58.226 53.1524 58.6717 53.3282 59.1131C53.3646 59.2052 53.4082 59.2945 53.4446 59.3759C53.5656 59.3733 53.5845 59.2983 53.6127 59.2302C54.5438 56.9806 55.4751 54.731 56.4064 52.4811C56.4521 52.3714 56.5003 52.2628 56.5437 52.1523C56.6244 51.9464 56.7773 51.8562 56.9924 51.8578C57.155 51.8592 57.3176 51.8569 57.4804 51.8569C57.776 51.8569 58.0719 51.8507 58.3672 51.86C58.6931 51.8704 58.7914 51.9709 58.807 52.2861ZM112.809 51.8602C113.145 51.8676 113.247 51.9783 113.269 52.323C113.274 52.4118 113.271 52.5013 113.271 52.5906C113.271 56.0999 113.271 59.6092 113.271 63.1185C113.271 63.2521 113.275 63.3873 113.257 63.519C113.227 63.7328 113.119 63.843 112.905 63.8475C112.402 63.858 111.899 63.8592 111.397 63.8485C111.137 63.8432 111.04 63.7259 111.025 63.4516C111.019 63.3328 111.022 63.2138 111.022 63.0947C111.022 61.2063 111.022 59.3178 111.022 57.4296C111.022 57.268 111.017 57.1063 111.014 56.9482C110.884 56.9323 110.86 57.0139 110.842 57.0782C110.422 58.5543 109.761 59.9368 109.205 61.3601C108.958 61.991 108.894 62.025 108.222 62.0284C107.956 62.0296 107.69 62.021 107.424 62.0284C107.083 62.0381 106.877 61.8779 106.749 61.5641C106.424 60.7665 106.082 59.9766 105.751 59.1816C105.467 58.4972 105.141 57.8279 104.95 57.1065C104.944 57.083 104.91 57.0663 104.886 57.0434C104.807 57.0387 104.803 57.1034 104.801 57.1594C104.796 57.2927 104.796 57.4268 104.796 57.5606C104.796 59.4042 104.796 61.2484 104.796 63.0921C104.796 63.2407 104.797 63.3902 104.782 63.5376C104.762 63.7356 104.669 63.8211 104.468 63.8478C104.425 63.8537 104.38 63.854 104.336 63.854C103.922 63.8544 103.508 63.8599 103.094 63.8525C102.741 63.8461 102.66 63.7604 102.635 63.3999C102.629 63.3111 102.631 63.2216 102.631 63.1323C102.631 59.623 102.63 56.1137 102.632 52.6044C102.632 52.4564 102.634 52.3066 102.654 52.1602C102.678 51.984 102.769 51.8959 102.941 51.8692C103.028 51.8554 103.118 51.8578 103.206 51.8576C103.546 51.8564 103.888 51.8764 104.226 51.8519C104.566 51.8269 104.741 51.9823 104.86 52.2823C105.04 52.7375 105.246 53.1825 105.442 53.6313C106.101 55.1414 106.763 56.6504 107.418 58.1624C107.553 58.4753 107.66 58.8005 107.783 59.119C107.819 59.2131 107.865 59.3035 107.933 59.4561C108.005 59.3352 108.041 59.2881 108.063 59.235C108.777 57.5063 109.488 55.7766 110.201 54.0477C110.45 53.4439 110.711 52.8449 110.951 52.2376C111.059 51.9654 111.229 51.8435 111.523 51.8538C111.951 51.8683 112.38 51.8507 112.809 51.8602ZM80.1353 59.1707C80.1711 59.3285 80.1924 59.4931 80.1945 59.6549C80.2018 60.1901 80.2042 60.7256 80.1957 61.2606C80.1827 62.0729 79.8421 62.7209 79.1938 63.2031C78.7207 63.5552 78.1799 63.7568 77.6064 63.8499C77.0976 63.9328 76.5812 63.9682 76.2974 63.9994C75.4137 63.9799 74.7654 63.9471 74.1328 63.7706C73.7172 63.6549 73.32 63.498 72.9643 63.2488C72.2612 62.7557 71.8879 62.0822 71.8794 61.2141C71.8756 60.8127 71.873 60.4111 71.882 60.0099C71.8891 59.7064 71.9835 59.6102 72.2846 59.605C72.7721 59.5966 73.2599 59.5978 73.7477 59.6057C73.9917 59.6097 74.0947 59.7114 74.1266 59.9499C74.1387 60.038 74.1349 60.128 74.1356 60.2173C74.137 60.3956 74.1413 60.5742 74.1358 60.7525C74.1115 61.5403 74.5825 61.8755 75.0986 62.0119C75.7251 62.1769 76.357 62.1691 76.983 62.0043C77.1239 61.9674 77.2611 61.9012 77.3868 61.8258C77.7141 61.6301 77.8926 61.3313 77.92 60.9506C77.935 60.7432 77.92 60.5342 77.9283 60.3263C77.9447 59.914 77.7622 59.6045 77.4273 59.3938C77.2034 59.2528 76.9625 59.1328 76.7168 59.035C76.0993 58.7883 75.475 58.5595 74.8532 58.3236C74.48 58.1824 74.1051 58.0465 73.7342 57.8993C72.7063 57.4917 72.1094 56.6399 72.09 55.5343C72.082 55.0593 72.0673 54.5841 72.1352 54.1096C72.2453 53.3382 72.6268 52.7535 73.2803 52.3425C73.5707 52.1599 73.8857 52.0319 74.2149 51.9435C74.644 51.8281 75.0799 51.7528 75.5261 51.7433C76.1765 51.7295 76.8261 51.715 77.4701 51.8388C77.9226 51.9259 78.36 52.0547 78.7652 52.2792C79.6305 52.7582 80.0707 53.4989 80.0986 54.4886C80.1053 54.7262 80.1034 54.9643 80.0993 55.2021C80.092 55.6235 80.0002 55.715 79.5668 55.7209C79.1678 55.7264 78.7688 55.7223 78.3697 55.7223C78.3252 55.7221 78.2807 55.7233 78.2367 55.7197C77.9754 55.699 77.8625 55.5933 77.8443 55.3333C77.8327 55.1705 77.8431 55.0064 77.837 54.8429C77.8152 54.2648 77.5454 53.8815 77.0015 53.7148C76.3933 53.5287 75.7741 53.5308 75.1673 53.7227C74.6438 53.8884 74.3758 54.2627 74.3406 54.8157C74.289 55.6228 74.4947 55.9359 75.2705 56.2161C76.1876 56.5473 77.1059 56.8754 78.0242 57.2032C78.4012 57.3379 78.7683 57.4925 79.0994 57.7227C79.6156 58.0815 79.9931 58.5429 80.1353 59.1707ZM100.244 52.1343C100.254 52.2824 100.258 52.4312 100.258 52.5797C100.259 54.0073 100.259 55.4348 100.259 56.8626C100.259 58.2306 100.262 59.5991 100.257 60.9671C100.256 61.2185 100.25 61.4751 100.202 61.7206C100.075 62.3641 99.7134 62.8586 99.1813 63.2303C98.8251 63.4791 98.4325 63.6538 98.014 63.7557C96.6993 64.0764 95.3803 64.08 94.0635 63.7662C93.6734 63.6736 93.3042 63.5207 92.9644 63.3038C92.1945 62.8132 91.7848 62.1096 91.7708 61.1916C91.7578 60.3293 91.7656 59.4667 91.7654 58.6041C91.7651 56.6412 91.7654 54.6782 91.7654 52.715C91.7654 52.5812 91.7618 52.4469 91.7684 52.3136C91.7848 51.981 91.8946 51.876 92.2364 51.8584C92.2955 51.8553 92.3547 51.8569 92.4139 51.8569C92.7686 51.8569 93.1234 51.8565 93.4782 51.8572C93.5669 51.8574 93.6564 51.8534 93.744 51.8641C93.9496 51.8891 94.0663 51.9962 94.0938 52.205C94.1127 52.3514 94.1073 52.5014 94.1073 52.65C94.108 55.2229 94.1077 57.7954 94.108 60.3683C94.108 60.5169 94.1068 60.6657 94.1122 60.8142C94.1274 61.2342 94.3177 61.5554 94.6767 61.7639C94.8282 61.8523 94.9948 61.9265 95.164 61.9696C95.7474 62.1182 96.3337 62.1108 96.9178 61.9606C97.5154 61.8073 97.9835 61.3837 97.9786 60.5707C97.962 57.9235 97.9724 55.2762 97.9729 52.6293C97.9729 52.4807 97.9688 52.3312 97.9833 52.1838C98.0017 51.9984 98.1116 51.8941 98.2983 51.8657C98.3563 51.8569 98.4162 51.8579 98.4753 51.8576C98.9039 51.8572 99.3326 51.856 99.7614 51.8584C99.8492 51.8591 99.9401 51.8624 100.024 51.8853C100.146 51.9181 100.235 51.9981 100.244 52.1343ZM69.5848 52.317C69.5933 52.4506 69.5898 52.5847 69.5898 52.7187C69.59 54.1015 69.59 55.4845 69.59 56.8672C69.59 58.1757 69.5914 59.4845 69.5888 60.7932C69.5884 61.0158 69.5796 61.2391 69.5604 61.4608C69.5013 62.1521 69.1789 62.7004 68.6431 63.1264C68.2422 63.4452 67.7832 63.6504 67.2898 63.7673C65.9885 64.0758 64.683 64.0811 63.3835 63.762C63.0855 63.689 62.7925 63.5687 62.5175 63.4294C61.589 62.9588 61.1175 62.1867 61.0837 61.1427C61.0813 61.0686 61.0827 60.9941 61.0827 60.9198C61.0827 58.1541 61.0823 55.3878 61.0837 52.622C61.0837 52.4739 61.0842 52.3237 61.1069 52.1782C61.1369 51.9859 61.2416 51.8956 61.4309 51.8649C61.46 51.8599 61.4898 51.859 61.5194 51.859C62.0072 51.8583 62.4952 51.8511 62.9828 51.8609C63.2942 51.8671 63.4019 51.9847 63.4183 52.2978C63.4251 52.4311 63.4213 52.5654 63.4213 52.6992C63.4216 55.2271 63.4216 57.755 63.4216 60.283C63.4216 60.4168 63.4237 60.5506 63.4218 60.6846C63.4138 61.2581 63.7004 61.6998 64.2788 61.9019C64.5403 61.9933 64.8241 62.0331 65.1012 62.0638C65.4858 62.1069 65.8693 62.0648 66.2418 61.9572C66.9911 61.741 67.2841 61.3531 67.285 60.5672C67.2876 58.5005 67.2862 56.4335 67.2862 54.3664C67.2862 53.742 67.2843 53.1172 67.2869 52.4927C67.2893 51.9345 67.3667 51.8597 67.9335 51.8571C68.2736 51.8557 68.6135 51.8568 68.9536 51.8568C69.0128 51.8568 69.0719 51.8554 69.1311 51.858C69.4828 51.874 69.5614 51.9514 69.5848 52.317ZM89.1321 61.937C89.3503 61.9551 89.476 62.0536 89.4838 62.2629C89.4994 62.6784 89.4996 63.0953 89.4838 63.5105C89.4757 63.7219 89.3479 63.8276 89.1392 63.8483C89.0367 63.8585 88.9326 63.855 88.8291 63.855C86.9374 63.8554 85.0457 63.8552 83.1541 63.8552C83.0654 63.8552 82.9764 63.8578 82.8881 63.8521C82.6155 63.8343 82.5296 63.7526 82.4995 63.4693C82.4853 63.3364 82.4867 63.2017 82.4867 63.0683C82.486 59.5895 82.4863 56.1107 82.4863 52.6321C82.4863 52.5428 82.4846 52.4535 82.4898 52.3645C82.5137 51.9507 82.5939 51.871 82.9944 51.8576C83.0387 51.8562 83.0829 51.8569 83.1274 51.8569C84.9749 51.8569 86.8221 51.8567 88.6694 51.8572C88.7726 51.8572 88.8772 51.8533 88.9792 51.8669C89.1844 51.8945 89.3037 52.0067 89.3105 52.2205C89.3236 52.6214 89.3252 53.0235 89.3084 53.424C89.2987 53.6575 89.1714 53.7575 88.9311 53.7725C88.8133 53.7799 88.6947 53.7766 88.5766 53.7768C87.4978 53.777 86.4188 53.7761 85.3401 53.7777C85.1806 53.7777 85.017 53.7585 84.8402 53.8294C84.7962 54.1658 84.773 55.8707 84.8028 56.4497C84.8064 56.5209 84.8272 56.5911 84.8371 56.6471C85.003 56.7623 85.1704 56.7283 85.3294 56.7287C86.3197 56.7321 87.3097 56.7302 88.2999 56.7311C88.4327 56.7311 88.5662 56.7304 88.6985 56.7421C88.8987 56.7599 88.9846 56.8435 89.0246 57.0416C89.0305 57.0706 89.0358 57.1004 89.036 57.1299C89.0367 57.4716 89.049 57.8142 89.0329 58.1551C89.0192 58.4463 88.902 58.5503 88.6175 58.5732C88.5148 58.5815 88.4107 58.5767 88.3073 58.5767C87.3173 58.577 86.327 58.576 85.3368 58.5777C85.1775 58.5782 85.0144 58.5586 84.8371 58.627C84.8248 58.7148 84.8047 58.7993 84.8021 58.8846C84.7602 60.2188 84.7825 61.5084 84.8542 61.8779C84.9955 61.9615 85.1616 61.9291 85.3195 61.9296C86.4721 61.9325 87.6249 61.931 88.7775 61.9315C88.8959 61.9315 89.0144 61.9272 89.1321 61.937ZM61.4508 12.2612C61.2558 12.2448 61.1552 12.1446 61.15 11.9434C61.1389 11.5272 61.1391 11.1106 61.1479 10.6944C61.1517 10.5013 61.2542 10.4035 61.4475 10.3675C61.5053 10.3566 61.5652 10.3554 61.6241 10.3542C61.7422 10.3521 61.8605 10.3528 61.9789 10.3528C78.7906 10.3528 95.6021 10.3528 112.414 10.353C112.576 10.353 112.74 10.3463 112.901 10.3623C113.136 10.3859 113.252 10.4944 113.261 10.7358C113.276 11.1218 113.279 11.5096 113.261 11.8953C113.249 12.1572 113.128 12.255 112.861 12.2698C112.698 12.2786 112.535 12.2748 112.373 12.2748C103.989 12.275 95.6058 12.275 87.2221 12.275C78.8237 12.275 70.4253 12.275 62.0269 12.2746C61.8347 12.2743 61.6418 12.2772 61.4508 12.2612ZM3.10118 2.10608C3.04556 2.5301 3.01716 8.66995 3.06071 9.90082C3.06379 9.98724 3.08414 10.0727 3.09858 10.1739C3.19325 10.1929 3.27727 10.2244 3.36129 10.2248C3.93688 10.2289 4.51294 10.2379 5.0883 10.2225C5.44189 10.2129 5.79454 10.1629 6.12541 10.0203C6.63686 9.79988 6.9204 9.41752 6.92135 8.84922C6.92419 7.05243 6.92324 5.25564 6.92205 3.45909C6.92182 2.87222 6.63639 2.47748 6.10198 2.26011C5.82601 2.14774 5.53775 2.08441 5.23977 2.08179C4.60501 2.07632 3.97025 2.07536 3.33572 2.07513C3.26496 2.07513 3.19419 2.09322 3.10118 2.10608ZM0.73041 11.5045C0.72899 9.7194 0.729937 7.93428 0.7297 6.14939C0.7297 4.39403 0.729463 2.6389 0.730173 0.883534C0.73041 0.749971 0.725676 0.614742 0.743427 0.483083C0.772065 0.269287 0.881172 0.175246 1.09631 0.156199C1.155 0.150961 1.21441 0.151914 1.27358 0.151914C2.63398 0.153104 3.99439 0.148343 5.3548 0.158818C6.03855 0.164294 6.70786 0.278811 7.35351 0.513081C7.76083 0.660929 8.13525 0.867107 8.45334 1.16614C8.91651 1.60111 9.18017 2.13393 9.2152 2.77461C9.22348 2.92293 9.22514 3.07197 9.22514 3.22053C9.22561 5.16922 9.22561 7.1179 9.22514 9.06635C9.22514 9.20039 9.22466 9.33419 9.21851 9.46799C9.18419 10.2303 8.84859 10.8324 8.25098 11.2929C7.77077 11.6629 7.21529 11.8602 6.63213 11.9828C6.09559 12.0959 5.54958 12.1443 5.00239 12.1473C3.78967 12.154 2.57718 12.1507 1.3647 12.149C0.799756 12.1483 0.730883 12.0793 0.73041 11.5045ZM49.652 11.9862C49.1541 11.8245 48.6978 11.5874 48.3255 11.2072C47.9151 10.7877 47.673 10.2875 47.6464 9.69869C47.6259 9.23848 47.6282 8.77685 47.6367 8.31616C47.6429 7.99499 47.7255 7.90166 48.0251 7.89309C48.5127 7.87904 49.0009 7.87952 49.4885 7.89333C49.7744 7.90119 49.8435 7.98809 49.8643 8.27997C49.8717 8.38354 49.8683 8.48829 49.8691 8.59209C49.8705 8.74089 49.8672 8.8897 49.8726 9.03826C49.8986 9.75988 50.2092 10.1399 50.9348 10.322C51.4879 10.4608 52.0486 10.4567 52.6045 10.326C52.747 10.2927 52.8864 10.2372 53.0197 10.1756C53.4338 9.9832 53.6454 9.64346 53.6809 9.1942C53.6973 8.98731 53.6866 8.77804 53.6864 8.56995C53.6857 8.21617 53.5356 7.92976 53.2526 7.73477C53.0351 7.58478 52.7972 7.45621 52.5529 7.35622C52.006 7.13171 51.45 6.9303 50.8972 6.72078C50.4132 6.5377 49.9233 6.36938 49.4456 6.17177C48.591 5.81822 48.0602 5.18374 47.88 4.26523C47.8573 4.14928 47.8479 4.02929 47.8467 3.9112C47.8426 3.53932 47.8358 3.1672 47.8471 2.79579C47.8819 1.67729 48.3981 0.87782 49.4239 0.423087C49.764 0.272144 50.1195 0.173579 50.4854 0.114535C51.5627 -0.0597395 52.6351 -0.0480736 53.6937 0.239527C53.9347 0.304999 54.1716 0.397375 54.3966 0.505939C55.2865 0.934722 55.766 1.65801 55.8501 2.6408C55.8768 2.95078 55.8664 3.26529 55.8553 3.57717C55.8449 3.87263 55.7464 3.9812 55.4463 3.9912C54.959 4.00715 54.4705 4.00738 53.9834 3.99096C53.6864 3.9812 53.614 3.88073 53.6012 3.5617C53.5953 3.41314 53.604 3.26386 53.5955 3.11554C53.5631 2.53867 53.2864 2.16203 52.7399 1.99989C52.1459 1.82348 51.5405 1.82657 50.9469 2.00132C50.3978 2.16274 50.1225 2.54581 50.1015 3.11863C50.097 3.23743 50.0998 3.35671 50.1008 3.47551C50.1053 3.87049 50.2922 4.15595 50.6316 4.33808C50.7741 4.4145 50.9291 4.46926 51.0818 4.52426C51.9994 4.85495 52.9177 5.18422 53.8364 5.51134C54.1862 5.63585 54.524 5.78465 54.8316 5.99464C55.5682 6.49794 55.9677 7.18623 55.962 8.09498C55.9589 8.55615 55.9679 9.01731 55.9585 9.47823C55.9391 10.4513 55.5048 11.1829 54.6686 11.6705C54.2156 11.9347 53.7231 12.095 53.2074 12.1657C52.7399 12.2297 52.268 12.2595 51.798 12.3047C51.0662 12.2881 50.3486 12.2123 49.652 11.9862ZM13.8349 7.2427C13.7996 7.39246 13.7241 7.54697 13.7788 7.70482C14.1956 7.78243 15.6137 7.77624 15.9484 7.69791C15.9555 7.65839 15.9777 7.61268 15.9685 7.57435C15.6265 6.16515 15.2824 4.75667 14.9354 3.3489C14.9262 3.31105 14.8838 3.28176 14.8379 3.22486C14.796 3.34033 14.7536 3.43318 14.7288 3.53032C14.6703 3.75983 14.6221 3.99172 14.5662 4.22194C14.3219 5.22878 14.0732 6.23467 13.8349 7.2427ZM10.5754 12.1814C10.3326 12.1769 10.258 12.0788 10.2902 11.8407C10.3042 11.7388 10.3361 11.6386 10.3655 11.5391C11.4139 7.97694 12.4631 4.41503 13.5132 0.853108C13.5509 0.725497 13.5946 0.598124 13.6484 0.476465C13.7127 0.330522 13.829 0.24267 13.9918 0.232671C14.1392 0.223862 14.2869 0.216481 14.4346 0.215767C14.8043 0.2141 15.1742 0.209339 15.5437 0.218862C15.9531 0.229576 16.0655 0.312189 16.1843 0.697641C16.342 1.20856 16.4868 1.72329 16.6373 2.23659C17.544 5.32949 18.4507 8.42239 19.3572 11.5153C19.3823 11.601 19.4071 11.6867 19.4277 11.7734C19.5013 12.0829 19.4325 12.1719 19.104 12.1862C18.9709 12.1917 18.8377 12.1886 18.7047 12.1886C18.3497 12.1883 17.9947 12.1931 17.6399 12.1862C17.2943 12.1793 17.1997 12.1174 17.0944 11.781C16.9438 11.2991 16.8151 10.8103 16.6745 10.3256C16.6085 10.0987 16.5363 9.87349 16.4641 9.63803C16.008 9.56922 13.5402 9.57375 13.1495 9.6416C13.1078 9.76207 13.055 9.89777 13.0143 10.0373C12.8645 10.5508 12.7197 11.0653 12.5717 11.5791C12.5429 11.6791 12.514 11.7793 12.4768 11.876C12.4001 12.0755 12.2607 12.1872 12.0395 12.186C11.5514 12.1833 11.0632 12.1907 10.5754 12.1814ZM40.9317 7.69863C41.3267 7.78219 42.7709 7.77815 43.1344 7.69148C43.1204 7.58102 43.1164 7.46483 43.0899 7.35389C42.9581 6.80559 42.8187 6.25919 42.6852 5.71137C42.5058 4.97594 42.33 4.24004 42.1515 3.50461C42.1281 3.40866 42.1283 3.29462 41.979 3.26034C41.9539 3.34343 41.9243 3.4258 41.9037 3.51056C41.592 4.79405 41.2803 6.07754 40.9721 7.36198C40.9459 7.47198 40.9445 7.58792 40.9317 7.69863ZM46.5056 11.4617C46.5475 11.6039 46.5946 11.7455 46.6242 11.8905C46.654 12.0374 46.5645 12.1522 46.4176 12.1745C46.3593 12.1833 46.2999 12.1869 46.241 12.1872C45.7681 12.1879 45.2952 12.1924 44.8226 12.1862C44.452 12.1812 44.3632 12.12 44.2518 11.7553C44.0783 11.1877 43.9225 10.6149 43.7566 10.0449C43.7159 9.90539 43.6653 9.76802 43.6246 9.64612C43.2677 9.57637 40.8434 9.56375 40.3653 9.62351C40.2323 9.7166 40.2266 9.87754 40.185 10.0147C40.0515 10.4546 39.932 10.8989 39.8072 11.342C39.775 11.456 39.7459 11.5715 39.7109 11.6848C39.5784 12.1119 39.4894 12.1829 39.0534 12.1872C38.625 12.1912 38.1964 12.1931 37.7681 12.1833C37.484 12.1772 37.405 12.0676 37.4604 11.7843C37.4829 11.6681 37.5205 11.5548 37.5541 11.441C38.542 8.0967 39.5301 4.75262 40.518 1.40831C40.5937 1.15214 40.672 0.896914 40.7442 0.639788C40.8228 0.36052 40.9951 0.216005 41.2905 0.218386C41.7778 0.222433 42.2656 0.22529 42.7529 0.216005C43.0681 0.210053 43.2506 0.360758 43.3368 0.653834C43.4579 1.0669 43.5808 1.47902 43.702 1.89209C44.6366 5.08189 45.5715 8.27169 46.5056 11.4617ZM29.5542 12.1833C29.3353 12.1669 29.2411 12.0755 29.216 11.8495C29.2046 11.7464 29.2089 11.6417 29.2089 11.5374C29.2087 7.9824 29.2087 4.42738 29.2091 0.87213C29.2091 0.753328 29.2051 0.633098 29.2214 0.515962C29.2446 0.347878 29.3443 0.260026 29.5147 0.232647C29.544 0.227885 29.5736 0.222886 29.603 0.222886C30.1203 0.222886 30.6379 0.215981 31.1551 0.227647C31.3915 0.232885 31.4772 0.315261 31.5115 0.541675C31.5359 0.702141 31.5354 0.867607 31.5356 1.03069C31.5368 3.91622 31.5361 6.80199 31.5373 9.688C31.5375 9.86275 31.5181 10.0411 31.5764 10.2168C31.7444 10.2911 31.9084 10.2665 32.0672 10.267C33.1024 10.2694 34.1374 10.267 35.1726 10.2696C35.3196 10.2701 35.4682 10.2789 35.6135 10.3008C35.7799 10.3258 35.8845 10.4408 35.8888 10.6044C35.8999 11.0205 35.9035 11.4374 35.8881 11.8531C35.88 12.0695 35.7612 12.1638 35.5425 12.1817C35.4398 12.1902 35.3357 12.1883 35.2323 12.1883C33.443 12.1886 31.654 12.1886 29.8647 12.1883C29.7611 12.1883 29.6572 12.1909 29.5542 12.1833ZM21.5496 12.1875C21.0665 12.1868 21.0201 12.1351 21.009 11.6514C21.0071 11.5773 21.0081 11.5028 21.0081 11.4285C21.0081 7.94897 21.0078 4.46943 21.0088 0.989885C21.0088 0.826562 21.009 0.662286 21.0265 0.500392C21.0436 0.338497 21.1221 0.265645 21.2807 0.237313C21.3531 0.224219 21.4277 0.218029 21.5013 0.217791C21.9446 0.216124 22.3881 0.217314 22.8316 0.217791C22.8612 0.217791 22.8908 0.219695 22.9201 0.222552C23.2037 0.249693 23.2889 0.330164 23.3055 0.605147C23.3147 0.753471 23.3099 0.902509 23.3099 1.05107C23.3102 3.92089 23.3099 6.79071 23.3109 9.66053C23.3109 9.83647 23.3201 10.0122 23.327 10.2505C23.5424 10.2579 23.7026 10.2674 23.8626 10.2676C24.8973 10.2688 25.9321 10.2664 26.9668 10.2705C27.1277 10.271 27.2908 10.2883 27.4492 10.3183C27.5762 10.3424 27.6581 10.4371 27.6591 10.5719C27.6631 11.0176 27.6669 11.4633 27.6558 11.9087C27.6517 12.0635 27.5523 12.1518 27.4023 12.173C27.3005 12.1877 27.1959 12.1877 27.0927 12.188C25.245 12.1887 23.3973 12.1899 21.5496 12.1875ZM103.211 26.1492C103.195 26.5367 103.126 26.6029 102.728 26.6146C102.624 26.6177 102.52 26.6172 102.417 26.6146C102.005 26.6044 101.919 26.5208 101.905 26.1227C101.903 26.078 101.904 26.0334 101.904 25.9887C101.904 24.2486 101.903 22.5082 101.905 20.7678C101.905 20.6347 101.909 20.4993 101.934 20.3693C101.957 20.2436 102.042 20.1545 102.179 20.1522C102.415 20.1474 102.652 20.1479 102.888 20.1533C103.015 20.1562 103.111 20.2288 103.185 20.3269C103.282 20.4576 103.377 20.5905 103.467 20.7269C104.095 21.6818 104.72 22.6387 105.348 23.5936C105.426 23.7126 105.484 23.8529 105.639 23.9352C105.736 23.8264 105.709 23.7038 105.71 23.5936C105.713 22.6713 105.711 21.7492 105.712 20.8269C105.712 20.7228 105.707 20.6183 105.715 20.5145C105.735 20.2369 105.821 20.1531 106.103 20.1436C106.295 20.1374 106.488 20.136 106.68 20.1464C106.914 20.1593 106.985 20.2367 107.004 20.4814C107.012 20.585 107.009 20.6895 107.009 20.7938V25.9699C107.009 26.0444 107.01 26.1189 107.007 26.1932C106.993 26.5246 106.916 26.5986 106.574 26.6144C106.515 26.617 106.455 26.6094 106.397 26.6163C106.046 26.6577 105.821 26.4994 105.631 26.2063C104.942 25.149 104.235 24.1038 103.534 23.0551C103.471 22.9598 103.398 22.871 103.302 22.7439C103.262 22.8372 103.227 22.8858 103.223 22.9367C103.212 23.0698 103.213 23.2041 103.213 23.3377C103.213 24.1707 103.213 25.0037 103.213 25.8368C103.213 25.9408 103.215 26.0451 103.211 26.1492ZM111.04 21.4094C110.696 21.2682 110.019 21.2456 109.587 21.3661C109.576 21.443 109.552 21.5282 109.552 21.6134C109.549 22.7877 109.55 23.9619 109.553 25.1358C109.553 25.2196 109.582 25.303 109.6 25.3975C110.003 25.4456 110.385 25.453 110.763 25.3911C111.186 25.3213 111.491 25.0792 111.661 24.678C111.718 24.5421 111.777 24.403 111.807 24.2595C111.892 23.8502 111.924 23.435 111.879 23.0181C111.842 22.6786 111.799 22.3401 111.65 22.0248C111.517 21.746 111.33 21.528 111.04 21.4094ZM108.728 20.1419C109.068 20.1381 109.407 20.1409 109.747 20.1409V20.1483C110.087 20.1483 110.428 20.1312 110.767 20.154C111.03 20.1714 111.299 20.2095 111.549 20.2892C112.288 20.5247 112.786 21.0256 113.032 21.7665C113.236 22.3801 113.299 23.0162 113.258 23.6581C113.235 24.0128 113.187 24.3695 113.109 24.7156C112.86 25.8208 112.067 26.4412 111.083 26.5531C110.804 26.5848 110.524 26.6067 110.244 26.6126C109.786 26.6224 109.328 26.6155 108.87 26.615C108.766 26.615 108.662 26.6198 108.56 26.6088C108.34 26.5855 108.239 26.4869 108.213 26.2739C108.202 26.1858 108.205 26.0958 108.205 26.0065C108.205 24.2518 108.205 22.4974 108.205 20.743C108.205 20.7133 108.204 20.6835 108.205 20.6537C108.217 20.2069 108.277 20.1464 108.728 20.1419ZM98.2922 23.9151C98.4764 23.9105 98.6719 23.967 98.8411 23.8536C98.815 23.5117 98.457 22.3009 98.2608 21.9264C98.0861 22.2621 98.03 22.5847 97.941 22.8944C97.8489 23.2134 97.6953 23.521 97.7053 23.8734C97.9107 23.9434 98.1036 23.9198 98.2922 23.9151ZM100.952 26.0014C100.98 26.0854 101.013 26.1692 101.032 26.2556C101.081 26.4725 100.99 26.5977 100.76 26.6094C100.524 26.6216 100.287 26.6139 100.051 26.6125C99.8304 26.6113 99.6922 26.498 99.628 26.289C99.567 26.0906 99.508 25.8914 99.4463 25.693C99.385 25.4964 99.3213 25.3002 99.2581 25.1028C99.1665 25.0809 99.0965 25.0505 99.0262 25.0497C98.5389 25.0447 98.0513 25.0483 97.5638 25.0443C97.3777 25.0428 97.2618 25.1105 97.208 25.3026C97.124 25.6026 97.0237 25.8978 96.9226 26.1925C96.8014 26.5475 96.7198 26.6061 96.3418 26.6139C96.1499 26.618 95.9567 26.6218 95.7662 26.6039C95.5743 26.5861 95.4945 26.4501 95.5468 26.2535C95.5889 26.0959 95.6408 25.9409 95.6924 25.7859C96.2478 24.1098 96.804 22.4337 97.3609 20.7581C97.403 20.6315 97.4466 20.505 97.4975 20.3817C97.5593 20.2322 97.6684 20.1446 97.8376 20.1453C98.1183 20.1462 98.399 20.1479 98.6797 20.1427C98.8884 20.1391 99.0079 20.2484 99.0752 20.4338C99.1002 20.5036 99.1244 20.5738 99.1481 20.6443C99.7497 22.4299 100.351 24.2155 100.952 26.0014Z" fill="#787899"/>
</svg>
