<svg width="94" height="64" viewBox="0 0 94 64" fill="none" xmlns="http://www.w3.org/2000/svg">
<path fill-rule="evenodd" clip-rule="evenodd" d="M55.9823 23.0781C55.9823 24.2677 55.6278 25.5763 54.8004 26.8848H57.2824V7.97017H49.4819V15.7026C53.6185 17.0111 55.9823 19.7472 55.9823 23.0781Z" fill="#787899"/>
<path d="M42.5087 14.989C44.2815 14.989 45.9362 15.3458 47.1181 15.7027C44.5179 15.2269 40.3813 15.9406 38.2538 17.6061V26.766H46.0544V16.2975C47.7091 16.6544 49.0092 17.2492 49.7183 17.844V26.766H51.373C49.8365 28.5504 46.8817 29.6211 44.2815 29.2642V29.74C51.6094 30.3348 54.8005 26.766 54.8005 22.8403C54.8005 18.2009 50.4275 15.4648 46.0544 14.87V7.97032H38.2538V14.87C33.2898 15.9406 28.3258 18.9146 28.3258 23.911C28.3258 31.5244 38.963 36.2828 48.1818 36.2828C62.2465 36.2828 73.0019 29.5021 73.0019 19.8663C73.1201 8.3272 57.5189 0 45.2271 0C31.2806 0 20.8798 9.04096 20.8798 18.5578C20.8798 23.5541 23.5982 27.7177 27.1439 30.5727L27.3803 30.4538C24.6619 28.1935 22.0617 24.5058 22.0617 19.6284C22.889 9.04096 35.7718 3.09296 47.2363 3.09296C55.2733 3.09296 69.9289 4.99632 69.9289 18.5578C69.9289 25.6954 62.3647 34.8553 46.5272 34.8553C38.372 34.8553 32.1079 30.4538 32.1079 24.1489C31.9897 18.9146 36.2446 14.989 42.5087 14.989Z" fill="#787899"/>
<path d="M12.6062 63.6432V62.5725H15.3246V53.2937H7.99674V62.5725H10.8333V63.6432H0.787109V62.5725H3.3873V43.6579H0.787109V42.5873H10.8333V43.6579H7.99674V51.9851H15.2064V43.6579H12.6062V42.5873H22.5342V43.6579H19.934V62.5725H22.5342V63.6432H12.6062Z" fill="#787899"/>
<path d="M26.3163 45.0854V42.5873H30.8076V45.0854H26.3163ZM24.0707 63.6432V62.5725H26.5527V49.6059H24.0707V48.5353H31.044V62.5725H33.2896V63.6432H24.0707Z" fill="#787899"/>
<path d="M34.2353 63.6432V62.5725H36.7173V40.9218H34.2353V39.8512H41.3267V62.5725H43.6905V63.6432H34.2353Z" fill="#787899"/>
<path d="M50.7816 63.6433C48.2996 63.6433 46.9995 62.3347 46.9995 60.4313V49.7249H44.5175V48.6543H46.8813V42.7063C48.2996 42.7063 49.7179 42.7063 51.1362 42.7063V48.6543H54.6819V49.7249H51.1362V62.6916H54.6819V63.7622H50.7816V63.6433Z" fill="#787899"/>
<path d="M71.7014 59.1226C71.2286 60.5501 69.1012 64 63.9008 64C58.1094 64 55.1547 60.0743 55.1547 55.9107C55.1547 50.3196 60.1187 47.9404 63.7826 47.9404C67.0919 47.9404 71.8195 49.9627 72.1741 55.6728C72.2923 56.8624 72.1741 58.052 71.7014 59.1226ZM66.8555 51.0333C66.2646 49.7248 65.2009 49.13 63.7826 49.13C60.2369 49.13 60.1187 52.8177 60.1187 56.0297C60.1187 60.3122 60.4732 61.026 60.8278 61.6208C61.3006 62.4535 62.2461 63.2862 63.7826 63.2862C67.3283 63.2862 67.3283 59.4795 67.3283 55.9107C67.3283 51.985 67.0919 51.5092 66.8555 51.0333Z" fill="#787899"/>
<path d="M84.3479 63.6431V62.5725H86.3571V53.6505C86.3571 51.6281 86.3571 49.7248 84.1115 49.7248C82.9296 49.7248 80.8021 50.9144 80.3294 53.0557C80.2112 53.6505 80.2112 54.3642 80.2112 56.0297V62.6914H82.4568V63.7621H73.2379V62.6914H75.7199V49.6058H73.2379V48.5352H80.2112V50.7954C80.9203 49.8437 81.6295 49.13 83.0478 48.5352C84.1115 48.0593 85.057 47.9404 85.7662 47.9404C86.0025 47.9404 86.8299 47.9404 87.7754 48.1783C90.612 49.011 90.8484 51.2713 90.8484 52.8177V62.4535H93.2122V63.5242H84.3479V63.6431Z" fill="#787899"/>
<path d="M68.806 33.792H68.1575V33.6H69.7787V33.792H69.1302V35.904H68.806V33.792ZM71.6161 35.52L72.4807 33.6H72.913V36H72.5888V34.176L71.8322 36H71.508L70.7514 34.176V36H70.4272V33.6H70.8595L71.6161 35.52Z" fill="#787899"/>
</svg>
