<svg width="156" height="40" viewBox="0 0 156 40" fill="none" xmlns="http://www.w3.org/2000/svg">
<path d="M129.556 37.8528C104.734 42.6841 72.0122 37.7585 72.0122 37.7585C72.0122 37.7585 148.309 41.4349 146.4 19.045C144.404 -4.36224 36.6191 4.44387 36.6191 4.44387C99.3788 -5.27694 132.175 3.92277 134.565 4.31082C147.017 7.24896 155.1 12.6596 155.84 18.5941C157.829 29.4901 140.84 35.6547 129.556 37.8528Z" fill="#787899"/>
<path d="M86.5197 32.5659C84.0006 32.5659 82.2886 32.055 81.3825 31.0359C80.4765 30.0168 80.3169 28.4738 81.0687 26.3912L85.4145 14.6312C86.3122 12.1514 87.4685 10.4938 88.8803 9.65858C90.291 8.82333 92.4973 8.40479 95.5012 8.40479H98.5833C101.583 8.40479 102.905 8.68289 104.037 9.82304C105.011 10.8024 105.051 12.1523 104.15 14.6322L99.824 26.3829C99.0702 28.4655 98.2527 30.1868 96.6074 31.2086C94.9621 32.2305 92.4962 32.5659 89.9782 32.5659H86.5197ZM100.524 14.2709C100.839 13.3202 101.105 12.4424 100.641 11.816C100.301 11.3522 99.8032 11.2062 98.8575 11.1406C97.9931 11.0325 96.474 11.0833 96.474 11.0833C95.1623 11.1175 94.3667 11.33 93.7109 11.7966C93.0551 12.2641 92.7152 12.7556 92.1688 14.2626L87.5822 26.7312C87.1589 27.8954 87.1078 28.7112 87.4247 29.1797C87.7396 29.6472 88.7218 29.9391 90.2889 29.9391C91.7674 29.9354 93.1583 29.8846 94.3918 29.0568C95.1029 28.6595 95.4542 27.8945 95.913 26.7395L100.524 14.2709Z" fill="#787899"/>
<path d="M15.2676 32.1778C15.2676 32.1778 -0.00312749 32.1907 4.80471e-07 32.1797L8.66866 8.75122H15.1342C15.1342 8.75122 7.3059 29.5557 7.36846 29.5557C8.03577 29.5557 16.253 29.5557 16.253 29.5557L15.2676 32.1778Z" fill="#787899"/>
<path d="M40.4728 11.4086C40.4665 11.4086 41.4581 8.76611 41.4581 8.76611H26.302C26.2999 8.76611 26.2968 8.76611 26.2968 8.76611L17.6323 32.1779H32.7592L33.7508 29.5558C33.7508 29.5558 25.6754 29.5558 25.0081 29.5558C24.9799 29.5558 26.5888 25.2391 28.3456 20.5399C31.825 20.5399 35.955 20.5399 35.9508 20.5399C35.9424 20.5399 36.9288 17.8984 36.9288 17.8984C36.9288 17.8984 32.9448 17.8984 29.3362 17.8975C30.2495 15.4582 31.1295 13.1114 31.7687 11.4086C35.8736 11.4086 40.478 11.4086 40.4728 11.4086Z" fill="#787899"/>
<path d="M80.3465 8.74751L74.6035 24.4268L72.194 8.75028L65.8619 8.75305L57.2568 32.1806H63.5899L69.3631 16.4929C69.3631 16.4929 71.7248 31.9459 71.7665 32.1732L71.7644 32.1787L75.4398 32.1806L84.0333 8.74658H80.3465V8.74751Z" fill="#787899"/>
<path d="M126.126 8.74756H121.51L116.011 14.8936L114.647 8.74756L107.873 8.75403L110.369 19.3979L99.3789 32.1815H103.922L111.337 23.5371L113.36 32.1778L119.852 32.1797L116.956 19.1428L126.126 8.74756Z" fill="#787899"/>
<path d="M58.536 8.74854L52.7899 24.4288L50.3835 8.75408L44.0493 8.75685L35.4453 32.1853H41.7784L47.5495 16.4958C47.5495 16.4958 49.9143 31.9617 49.9529 32.1751L49.9508 32.1862H53.6282L62.2208 8.75038H58.536V8.74854Z" fill="#787899"/>
<path d="M144.404 37.8056C144.404 39.0113 143.288 39.9999 141.926 39.9999C140.566 39.9999 139.452 39.0113 139.452 37.8056C139.452 36.5998 140.566 35.613 141.926 35.613C143.287 35.613 144.404 36.6007 144.404 37.8056ZM139.862 37.8056C139.862 38.7997 140.803 39.6303 141.925 39.6368C143.046 39.6294 143.991 38.7997 143.991 37.8056C143.991 36.8132 143.046 35.9761 141.925 35.9761C140.803 35.9761 139.862 36.8132 139.862 37.8056ZM141.277 36.6127H142.342C142.925 36.6127 143.143 36.8853 143.143 37.1394C143.143 37.6319 142.795 37.7815 142.501 37.91L142.939 38.9078L142.229 38.9928L141.898 38.031H141.598L141.378 38.9586H140.73L141.277 36.6127ZM141.701 37.6799H141.934C142.268 37.6799 142.48 37.5053 142.48 37.2364C142.48 37.0923 142.351 36.9638 142.139 36.9638H141.866L141.701 37.6799Z" fill="#787899"/>
</svg>
