<svg width="231" height="51" viewBox="0 0 231 51" fill="none" xmlns="http://www.w3.org/2000/svg">
<g clip-path="url(#clip0_202_973)">
<path d="M0 26.7593H3.73533C4.34307 33.2586 7.18491 38.5347 12.4137 42.5003C15.7488 45.0298 19.5509 46.4294 23.7739 46.8133V43.8264C17.9033 43.1083 13.2275 40.3925 9.89169 35.5429C8.08409 32.9153 7.09108 29.9872 6.82097 26.7943H10.5826C11.1072 31.0695 13.0747 34.5538 16.5463 37.1786C18.6738 38.7869 21.0898 39.7319 23.7781 40.0752V37.1029C18.1108 35.8623 14.7295 32.4621 13.6107 26.7971H17.442C18.2587 30.1679 20.3456 32.3332 23.7952 33.3062V26.788H27.5007V33.3482C28.1553 33.1002 28.7581 32.9265 29.3104 32.6533C31.6447 31.4989 33.146 29.6678 33.7686 27.16C33.8426 26.8616 33.9463 26.7523 34.2776 26.76C35.3893 26.7859 36.5017 26.7698 37.666 26.7698C37.3071 29.4282 36.2046 31.6929 34.333 33.5885C32.465 35.4806 30.1876 36.6161 27.5369 37.0581V40.0373C33.1502 39.5715 39.8511 34.8179 40.751 26.7915H44.5147C44.0918 31.2712 42.3354 35.1226 39.1474 38.319C35.9579 41.5168 32.0655 43.3087 27.5384 43.8116V46.7559C36.3027 46.3916 46.6287 38.988 47.5805 26.7985H51.3442C51.2824 27.4178 51.2426 28.0307 51.1573 28.6373C50.4642 33.557 48.5187 37.9386 45.227 41.7024C41.0616 46.4652 35.8144 49.4157 29.4902 50.285C20.7522 51.4864 13.2126 48.9393 7.04772 42.7217C3.07072 38.7092 0.813171 33.8218 0.127236 28.2408C0.0952491 27.9789 0.0426488 27.7197 0 27.4598C0 27.2265 0 26.9925 0 26.7593Z" fill="#27277C"/>
<path d="M27.2953 0C27.8305 0.0658474 28.3665 0.128192 28.9017 0.196842C34.3629 0.896645 39.1374 3.07031 43.1663 6.76617C47.5862 10.8207 50.2311 15.8174 51.1161 21.7093C51.2177 22.3874 51.276 23.0718 51.3577 23.7814H47.5897C47.0083 17.5294 44.3285 12.3688 39.3706 8.43547C35.2109 5.13539 30.4093 3.57677 25.0704 3.70637C13.8253 3.97816 4.55916 12.6686 3.74386 23.8164H0C0 23.5832 0 23.3492 0 23.1159C0.022746 23.0417 0.0554435 22.9695 0.0661057 22.8939C0.170595 22.1548 0.235279 21.4088 0.379575 20.6775C1.57516 14.6048 4.58617 9.58009 9.44601 5.66567C13.229 2.61918 17.5706 0.808381 22.4219 0.198243C22.9564 0.130994 23.491 0.0658474 24.0255 0C25.1152 0 26.2056 0 27.2953 0Z" fill="#27277C"/>
<path d="M44.4713 23.785H40.7594C40.1047 16.6685 33.9597 10.6673 26.241 10.4081C22.2597 10.2743 18.7313 11.4911 15.7245 14.0662C12.7291 16.6321 11.0502 19.9063 10.5853 23.7913H6.79883C7.4343 17.9238 10.1169 13.2571 15.035 9.92059C21.1047 5.80303 29.0637 5.60198 35.3863 9.33216C41.6166 13.0084 44.2545 19.2317 44.472 23.7843L44.4713 23.785Z" fill="#27277C"/>
<path d="M159.52 8.97629H162.073V23.4767H159.575V22.5892C159.487 22.6382 159.435 22.6564 159.398 22.69C157.879 24.0897 155.175 24.0413 153.492 22.6298C150.866 20.4281 151.097 15.9834 153.941 14.0675C155.345 13.1212 157.814 12.8711 159.52 14.4402V8.97559V8.97629ZM156.986 15.6626C155.419 15.6696 154.265 16.8724 154.259 18.5059C154.254 20.1416 155.441 21.3759 157.011 21.3654C158.622 21.3542 159.694 20.1942 159.684 18.4709C159.675 16.8212 158.555 15.6556 156.986 15.6626Z" fill="#27277C"/>
<path d="M88.3471 17.6191C87.7109 19.2723 87.1131 20.8295 86.5118 22.3853C86.3774 22.7321 86.3241 23.2042 86.0654 23.3821C85.8073 23.5601 85.3347 23.4143 84.9636 23.4627C84.5442 23.5166 84.3793 23.3401 84.235 22.9681C83.0672 19.9532 81.8744 16.948 80.6909 13.9393C80.6404 13.8111 80.5985 13.6794 80.5381 13.5092C81.3712 13.5092 82.173 13.5008 82.974 13.5218C83.0593 13.5239 83.1773 13.6857 83.2179 13.7964C83.8704 15.5946 84.513 17.397 85.1584 19.198C85.201 19.3164 85.2479 19.4334 85.3204 19.6246C85.7341 18.4695 86.1201 17.3886 86.5075 16.3077C86.8103 15.4622 87.1202 14.6181 87.4117 13.7684C87.4799 13.5695 87.5737 13.4931 87.7884 13.5029C88.1545 13.5204 88.5234 13.5225 88.8894 13.5022C89.1226 13.4889 89.2136 13.58 89.2875 13.7873C89.9365 15.6121 90.5968 17.4327 91.2543 19.2548C91.2899 19.3528 91.3268 19.4509 91.3894 19.6218C91.5529 19.17 91.695 18.7812 91.8336 18.391C92.3774 16.8632 92.9247 15.3368 93.4593 13.8055C93.5353 13.5884 93.6249 13.4931 93.8772 13.5001C94.6314 13.5197 95.3863 13.5071 96.1852 13.5071C95.7708 14.5586 95.3728 15.5659 94.9768 16.5739C94.1146 18.7679 93.2503 20.9619 92.3945 23.1587C92.312 23.3695 92.2153 23.4795 91.9623 23.4613C91.609 23.4354 91.2508 23.4375 90.8975 23.4613C90.6508 23.4774 90.552 23.3842 90.4696 23.1636C89.8398 21.4803 89.1958 19.8025 88.5546 18.1234C88.502 17.9854 88.4423 17.8509 88.3471 17.6191Z" fill="#27277C"/>
<path d="M132.223 15.0602H138.851V17.4152H132.212V23.4683H129.539V8.98608H139.215V11.33H132.223V15.0602Z" fill="#27277C"/>
<path d="M111.561 8.85718H114.107V14.4311C114.245 14.3302 114.319 14.2819 114.386 14.2251C115.921 12.9376 118.273 12.9754 119.747 14.3239C120.494 15.0076 120.896 15.8727 120.909 16.8702C120.935 19.0054 120.92 21.1412 120.92 23.2763C120.92 23.3212 120.906 23.366 120.895 23.4319H118.409C118.401 23.3051 118.387 23.1713 118.387 23.0375C118.386 21.2988 118.391 19.5602 118.384 17.8215C118.379 16.6755 117.768 15.872 116.759 15.6514C115.33 15.3396 114.129 16.2755 114.124 17.715C114.119 19.4768 114.123 21.2393 114.123 23.001C114.123 23.1383 114.123 23.2756 114.123 23.4333H111.562V8.85718H111.561Z" fill="#27277C"/>
<path d="M191.197 22.4996C188.875 24.8007 184.213 23.8383 183.4 19.6724C183.051 17.8861 183.41 16.2329 184.666 14.8396C186.428 12.8852 189.489 12.8487 191.036 14.3871C191.066 14.4172 191.108 14.4354 191.19 14.4893V13.5401H193.684V23.4824H191.197V22.4989V22.4996ZM191.315 18.6034C191.29 17.6514 191.066 16.8773 190.398 16.3022C189.592 15.6094 188.647 15.496 187.67 15.8315C186.66 16.1782 186.119 16.9579 185.958 17.9715C185.728 19.4118 186.369 20.6783 187.521 21.1518C189.434 21.9392 191.329 20.6145 191.315 18.6034H191.315Z" fill="#27277C"/>
<path d="M166.157 19.4396C166.423 20.3615 166.959 20.9912 167.817 21.2777C169.186 21.7345 170.427 21.4753 171.464 20.5079C171.965 21.0052 172.469 21.5068 173.013 22.0469C172.679 22.4637 172.193 22.821 171.649 23.1005C169.412 24.2486 165.777 23.9775 164.174 21.0179C162.281 17.5265 164.683 13.3964 168.736 13.3039C171.965 13.2304 174.243 16.0296 173.676 19.1111C173.626 19.3857 173.526 19.4452 173.268 19.4438C171.054 19.4354 168.839 19.4389 166.624 19.4389C166.484 19.4389 166.345 19.4389 166.157 19.4389L166.157 19.4396ZM171.225 17.4341C171.076 16.2684 170.154 15.5371 168.837 15.5168C167.536 15.4965 166.378 16.3322 166.204 17.4341H171.225Z" fill="#27277C"/>
<path d="M142.84 19.4397C143.08 20.3566 143.615 20.971 144.452 21.2638C145.83 21.7457 147.081 21.4802 148.129 20.5163C148.635 21.0151 149.148 21.5201 149.683 22.0469C149.074 22.7551 148.253 23.228 147.301 23.4984C144.696 24.2388 141.981 23.2147 140.813 20.9597C139.857 19.1132 139.933 17.2415 141.146 15.5252C142.361 13.8048 144.112 13.0924 146.21 13.3614C149.088 13.7312 150.934 16.3953 150.335 19.2057C150.281 19.4593 150.13 19.4404 149.949 19.4404C147.747 19.4389 145.545 19.4397 143.342 19.4397H142.841H142.84ZM147.907 17.4362C147.688 16.2047 146.741 15.4797 145.434 15.5175C144.119 15.5561 143.004 16.3869 142.883 17.4362H147.907Z" fill="#27277C"/>
<path d="M72.6985 19.3843C73.174 21.6939 76.4616 22.1037 77.9926 20.4456C78.4938 20.9387 78.9949 21.4326 79.5699 21.9986C79.4136 22.1289 79.2359 22.2746 79.061 22.4238C76.4438 24.6584 71.2143 23.967 70.2064 19.6827C69.7287 17.6534 70.2711 15.837 71.9458 14.4892C73.5892 13.1666 75.4643 12.9138 77.414 13.7291C79.5664 14.6293 80.6923 17.0916 80.0682 19.3836H72.6985V19.3843ZM72.7028 17.4313H77.7225C77.5811 16.2853 76.6819 15.5364 75.4081 15.493C74.0825 15.4482 72.9317 16.2608 72.7035 17.4313H72.7028Z" fill="#27277C"/>
<path d="M214.144 23.7121C210.98 23.8186 208.729 21.3332 208.613 18.7469C208.474 15.6542 211.049 13.3432 213.802 13.3096C216.988 13.2704 219.332 15.4391 219.369 18.4583C219.404 21.3451 217.081 23.6813 214.144 23.7121ZM211.242 18.4835C211.237 20.1304 212.371 21.3206 213.953 21.3297C215.61 21.3395 216.755 20.1914 216.762 18.5136C216.768 16.8717 215.635 15.7081 214.023 15.7032C212.418 15.6983 211.246 16.8689 211.241 18.4842L211.242 18.4835Z" fill="#27277C"/>
<path d="M220.906 23.4725V13.5337H223.466V14.4724C223.582 14.3869 223.651 14.3393 223.717 14.2861C225.002 13.2374 226.453 12.9719 227.96 13.6437C229.459 14.312 230.281 15.5414 230.308 17.1889C230.341 19.184 230.316 21.1804 230.315 23.1761C230.315 23.2686 230.307 23.3604 230.3 23.4774H227.757V23.0809C227.757 21.3072 227.767 19.5328 227.754 17.7592C227.741 16.0457 226.023 15.0657 224.504 15.9028C223.799 16.2923 223.487 16.9242 223.483 17.7031C223.475 19.4887 223.481 21.2743 223.481 23.0599V23.4732H220.907L220.906 23.4725Z" fill="#27277C"/>
<path d="M101.695 21.8628C102.216 21.3507 102.725 20.8513 103.251 20.335C103.762 20.8667 104.393 21.2905 105.166 21.3857C105.696 21.4516 106.247 21.4131 106.782 21.3598C107.118 21.3262 107.363 21.0957 107.399 20.7315C107.436 20.3623 107.26 20.0793 106.928 19.9434C106.428 19.7389 105.907 19.5834 105.396 19.4047C104.885 19.2261 104.368 19.0601 103.864 18.8625C101.742 18.0324 101.872 15.0371 103.486 13.9863C104.203 13.5198 104.985 13.3075 105.828 13.2837C107.268 13.2424 108.577 13.5653 109.601 14.6462C109.673 14.7226 109.742 14.8031 109.811 14.8844C109.84 14.9194 109.863 14.96 109.87 14.9712C109.362 15.4959 108.865 16.0087 108.341 16.5502C107.926 16.0703 107.442 15.7166 106.815 15.5842C106.274 15.4693 105.736 15.4497 105.205 15.6234C104.939 15.7103 104.75 15.8784 104.712 16.1642C104.674 16.4535 104.813 16.6791 105.062 16.7981C105.411 16.9649 105.777 17.1001 106.143 17.2262C106.8 17.4531 107.484 17.617 108.119 17.8916C109.379 18.4359 109.944 19.4159 109.835 20.777C109.735 22.0246 109.068 22.8561 107.927 23.3317C105.963 24.1499 103.164 23.5125 101.749 21.9412C101.719 21.9076 101.697 21.8649 101.696 21.8621L101.695 21.8628Z" fill="#27277C"/>
<path d="M59.8276 21.7646C60.4503 21.207 61.0445 20.6747 61.6366 20.1444C61.8364 20.3293 62.0162 20.5261 62.2259 20.6845C63.0199 21.2848 63.9013 21.3913 64.7969 20.9815C65.6605 20.5864 65.9442 19.8081 65.947 18.9283C65.9569 15.7081 65.9505 12.4879 65.9505 9.26765V8.86206H68.5742C68.5841 8.93912 68.6026 9.01547 68.6026 9.09253C68.6005 12.4178 68.6161 15.7424 68.5848 19.0677C68.5635 21.3801 67.0672 23.1783 64.8417 23.5628C62.9289 23.8928 61.2506 23.4283 59.9484 21.9279C59.9108 21.8851 59.8802 21.8361 59.8262 21.7639L59.8276 21.7646Z" fill="#27277C"/>
<path d="M197.758 13.5176V8.99097H200.335V13.5099H202.698V15.7522H200.354V23.4788H197.773V15.776H195.391V13.5176H197.757H197.758Z" fill="#27277C"/>
<path d="M175.574 13.5316H178.113V14.4451C178.828 13.6185 179.683 13.3194 180.665 13.3074C181.669 13.2955 182.516 13.6178 183.202 14.4142C182.668 14.9901 182.138 15.5624 181.584 16.1592C181.104 15.6892 180.522 15.5526 179.887 15.6422C178.818 15.7935 178.172 16.5375 178.149 17.736C178.116 19.5202 178.134 21.3051 178.13 23.09C178.13 23.2154 178.13 23.3408 178.13 23.4816H175.575V13.5316H175.574Z" fill="#27277C"/>
<path d="M27.6374 14.0059C27.0162 14.525 26.6607 15.1281 26.6536 15.9057C26.648 16.5452 26.8768 17.0895 27.3111 17.554C28.4371 18.7588 28.7051 20.4253 27.9999 21.8698C27.3083 23.2869 25.8071 24.131 24.1701 24.0196C24.0357 24.0105 23.9021 23.9797 23.6689 23.9433C23.8744 23.7646 24.0314 23.6575 24.1509 23.5188C24.9576 22.5836 24.91 21.2968 24.0421 20.3735C22.3845 18.6082 22.7193 15.8391 24.7494 14.5278C25.5967 13.98 26.7119 13.7698 27.6381 14.0066L27.6374 14.0059Z" fill="#27277C"/>
<path d="M81.3692 33.1402H78.4584V32.1021H82.6174C82.8001 34.6008 81.3984 36.7877 78.4179 36.7142C75.8568 36.6511 73.9398 34.3892 74.2497 31.852C74.625 28.7754 77.781 27.1985 80.5397 28.444C81.0621 28.6801 81.5028 29.0927 82.021 29.4507C81.6621 29.7722 81.3856 30.0202 81.1019 30.2744C80.3627 29.3456 79.3178 29.0135 78.1165 29.1704C76.3622 29.3988 75.3337 30.8229 75.4481 32.5658C75.5455 34.0425 76.3494 35.0953 77.5749 35.4561C78.3873 35.6949 79.192 35.6424 79.9661 35.3006C80.7842 34.9391 81.3543 34.067 81.3692 33.1395V33.1402Z" fill="#27277C"/>
<path d="M121.409 36.5767V28.2036C121.442 28.1826 121.461 28.1595 121.48 28.1602C122.805 28.1798 124.143 28.0894 125.45 28.2491C127.553 28.5069 129.04 30.4298 128.928 32.5299C128.808 34.7715 127.187 36.466 124.996 36.5676C123.817 36.6222 122.632 36.5774 121.409 36.5774V36.5767ZM122.576 29.2663V35.5274C123.197 35.5274 123.798 35.5274 124.398 35.5274C126.378 35.5274 127.588 34.4065 127.709 32.4598C127.807 30.8949 126.743 29.496 125.173 29.2859C124.329 29.1731 123.457 29.2656 122.577 29.2656L122.576 29.2663Z" fill="#27277C"/>
<path d="M204.424 13.5352H206.91V23.4837H204.424V13.5352Z" fill="#27277C"/>
<path d="M97.5586 13.5254H100.049V23.4284H97.5586V13.5254Z" fill="#27277C"/>
<path d="M147.405 31.5087V30.8397H148.524V36.579H147.419V35.9156C145.767 37.0154 144.321 36.9453 143.316 35.751C142.272 34.5097 142.353 32.5973 143.497 31.4786C144.578 30.4222 146.075 30.4173 147.404 31.5087H147.405ZM145.629 35.6662C146.712 35.6739 147.479 34.8641 147.481 33.709C147.484 32.5623 146.712 31.7336 145.639 31.7329C144.554 31.7322 143.772 32.5441 143.762 33.6796C143.753 34.8389 144.523 35.6585 145.629 35.6669V35.6662Z" fill="#27277C"/>
<path d="M135.873 36.5797H134.777V35.8379C134.102 36.5699 133.328 36.7996 132.456 36.7002C131.581 36.6007 130.906 36.165 130.431 35.4365C129.59 34.1461 129.831 32.3599 130.977 31.3532C132.034 30.4237 133.45 30.4664 134.739 31.4933V30.8384H135.874V36.5804L135.873 36.5797ZM132.99 35.6662C134.058 35.6683 134.817 34.8691 134.829 33.7314C134.841 32.5672 134.062 31.7273 132.974 31.7329C131.892 31.7385 131.112 32.5574 131.11 33.6915C131.108 34.8529 131.881 35.6648 132.989 35.6662H132.99Z" fill="#27277C"/>
<path d="M100.916 36.5823H99.797V35.8734C99.1324 36.555 98.3747 36.7959 97.5125 36.7014C96.6488 36.6068 95.9786 36.1858 95.4973 35.4769C94.6529 34.2328 94.8498 32.4143 95.9295 31.4294C97.0263 30.4284 98.4188 30.4368 99.7686 31.4763C99.78 31.2543 99.7899 31.0532 99.8013 30.8319H100.915V36.5823H100.916ZM98.0229 35.6667C99.0948 35.6716 99.8525 34.8801 99.8681 33.7389C99.8838 32.5733 99.1097 31.732 98.0207 31.7334C96.9431 31.7348 96.157 32.5516 96.1413 33.685C96.1257 34.8212 96.9239 35.6618 98.0221 35.6667H98.0229Z" fill="#27277C"/>
<path d="M94.0725 34.1081H89.5282C89.6206 34.7309 89.927 35.1848 90.4637 35.4328C91.4169 35.8734 92.3025 35.7228 93.0915 34.9985C93.3211 35.2324 93.5415 35.4573 93.7896 35.7102C93.3325 36.2678 92.7304 36.5459 92.0417 36.6727C90.7096 36.9171 89.4074 36.3448 88.7549 35.2331C88.103 34.1228 88.2488 32.6637 89.111 31.6718C89.9654 30.689 91.542 30.3912 92.7127 30.9916C93.8016 31.5499 94.3866 32.8766 94.0717 34.1088L94.0725 34.1081ZM89.5652 33.1645H93.0318C92.916 32.228 92.2784 31.7075 91.2946 31.7215C90.3741 31.7348 89.6341 32.3415 89.5652 33.1645Z" fill="#27277C"/>
<path d="M112.207 34.1152H107.657C107.779 35.5611 109.852 36.2861 111.195 35.0238C111.419 35.2584 111.643 35.4931 111.886 35.7481C111.434 36.2637 110.838 36.567 110.14 36.6707C108.988 36.8416 107.969 36.5691 107.194 35.6759C106.41 34.7723 106.281 33.7166 106.661 32.6217C107.164 31.1724 108.745 30.3871 110.274 30.7752C111.672 31.1297 112.473 32.4851 112.208 34.1152H112.207ZM111.149 33.18C111.027 32.1839 110.335 31.6593 109.272 31.7258C108.417 31.779 107.69 32.4403 107.688 33.18H111.149Z" fill="#27277C"/>
<path d="M59.8155 33.6927C59.8091 32.0269 61.1525 30.6939 62.8506 30.682C64.5999 30.6694 65.9633 31.9863 65.9619 33.6871C65.9604 35.3999 64.6177 36.7168 62.8727 36.7175C61.1589 36.7182 59.8226 35.3964 59.8155 33.6927ZM60.9876 33.6899C60.9883 34.8079 61.7894 35.6394 62.8691 35.6436C63.978 35.6478 64.784 34.829 64.7897 33.692C64.7954 32.5838 63.9915 31.7713 62.8869 31.7678C61.7837 31.7643 60.9876 32.5698 60.9883 33.6892L60.9876 33.6899Z" fill="#27277C"/>
<path d="M67.8085 36.5734V31.8212H66.4082V30.8216H67.8128C67.8128 30.4713 67.7978 30.1498 67.8156 29.8304C67.8654 28.9477 68.2812 28.2816 69.1256 27.9593C69.9594 27.6413 70.774 27.6903 71.4841 28.3068C71.5275 28.3446 71.563 28.3908 71.6043 28.4357C71.3619 28.6626 71.1266 28.8826 70.9041 29.0899C70.666 29.0115 70.4094 28.8784 70.1414 28.849C69.4548 28.7733 69.0027 29.1656 68.9579 29.8458C68.938 30.1477 68.9543 30.451 68.9543 30.7936H70.7833V31.7988H68.9678V36.5741H67.8099L67.8085 36.5734Z" fill="#27277C"/>
<path d="M149.645 35.6612C149.89 35.4244 150.117 35.2051 150.362 34.9684C150.91 35.5645 151.601 35.809 152.422 35.6654C152.743 35.6093 153.027 35.4853 153.088 35.1316C153.153 34.7596 152.926 34.532 152.607 34.4052C152.257 34.2665 151.892 34.1656 151.535 34.0444C151.312 33.9688 151.085 33.8987 150.871 33.8027C150.279 33.5351 149.957 33.0826 149.955 32.4297C149.954 31.7692 150.218 31.2578 150.827 30.9426C151.908 30.3836 153.526 30.7198 154.157 31.6389C153.918 31.8595 153.678 32.0809 153.424 32.3156C152.991 31.849 152.433 31.6312 151.763 31.7215C151.428 31.7671 151.119 31.8672 151.059 32.2455C150.996 32.6399 151.287 32.8073 151.599 32.9222C151.919 33.0406 152.253 33.1225 152.576 33.2332C152.821 33.3173 153.068 33.4041 153.297 33.5204C153.899 33.8266 154.204 34.312 154.18 34.9929C154.156 35.6584 153.861 36.1515 153.258 36.4569C152.118 37.0342 150.451 36.6678 149.646 35.6598L149.645 35.6612Z" fill="#27277C"/>
<path d="M104.532 36.5804H103.415V31.8324H101.995V30.8124H103.398V28.4055H104.508V30.797H105.946V31.8079H104.531V36.5804H104.532Z" fill="#27277C"/>
<path d="M137.503 27.908H138.588V36.5746H137.503V27.908Z" fill="#27277C"/>
<path d="M140.25 27.9019H141.315V36.579H140.25V27.9019Z" fill="#27277C"/>
<path d="M85.0799 30.8305C85.0898 31.0035 85.0991 31.1611 85.1119 31.3867C85.6813 30.7709 86.3508 30.5832 87.1207 30.7275C87.5415 30.8066 87.8869 31.0056 88.1783 31.3755C87.9161 31.594 87.6644 31.8042 87.4 32.0255C87.2322 31.9541 87.0091 31.814 86.7652 31.7621C85.9691 31.5926 85.254 32.0837 85.1531 32.8843C85.0934 33.3558 85.1041 33.837 85.0984 34.3141C85.0891 35.037 85.0934 35.7592 85.0906 36.4821C85.0906 36.5045 85.0778 36.5263 85.0621 36.5753H84.0059V30.8305H85.0792H85.0799Z" fill="#27277C"/>
<path d="M114.596 36.581H113.485V30.8327H114.576C114.586 30.9861 114.596 31.1437 114.613 31.3805C115.034 30.9097 115.531 30.6891 116.119 30.6821C116.717 30.6751 117.235 30.8544 117.648 31.349C117.417 31.5913 117.186 31.833 116.971 32.0572C116.703 31.9472 116.467 31.8008 116.212 31.7553C115.302 31.5934 114.607 32.2239 114.598 33.2039C114.589 34.1958 114.596 35.1877 114.596 36.1803V36.581Z" fill="#27277C"/>
<path d="M207.131 10.3773C207.128 11.2277 206.514 11.8378 205.66 11.8385C204.809 11.8385 204.168 11.1871 204.182 10.336C204.196 9.48485 204.81 8.88452 205.667 8.88452C206.544 8.88452 207.135 9.48695 207.132 10.3766L207.131 10.3773Z" fill="#27277C"/>
<path d="M98.8159 8.89649C99.6625 8.89859 100.28 9.51643 100.283 10.3633C100.286 11.1948 99.6468 11.8351 98.8116 11.8379C97.9686 11.8407 97.309 11.1773 97.3225 10.3416C97.336 9.50663 97.9679 8.89509 98.8159 8.89649Z" fill="#27277C"/>
</g>
<defs>
<clipPath id="clip0_202_973">
<rect width="230.324" height="50.5757" fill="white"/>
</clipPath>
</defs>
</svg>
