<svg width="515" height="386" viewBox="0 0 515 386" fill="none" xmlns="http://www.w3.org/2000/svg">
<g clip-path="url(#clip0_244_1833)">
<mask id="mask0_244_1833" style="mask-type:luminance" maskUnits="userSpaceOnUse" x="0" y="0" width="515" height="386">
<path d="M515 0H0V386H515V0Z" fill="white"/>
</mask>
<g mask="url(#mask0_244_1833)">
<mask id="mask1_244_1833" style="mask-type:luminance" maskUnits="userSpaceOnUse" x="0" y="0" width="604" height="605">
<path d="M604 0H0V605H604V0Z" fill="white"/>
</mask>
<g mask="url(#mask1_244_1833)">
<g opacity="0.1">
<path d="M333.858 226.427C326.366 202.152 299.575 188.707 326.285 163.219C326.123 162.815 325.935 162.438 325.773 162.034C294.508 158.693 262.273 188.007 274.51 221.685C285.614 246.473 304.211 256.064 280.951 283.303C312.809 287.183 342.133 258.435 333.858 226.427Z" fill="white"/>
<path d="M325.234 321.993H278.795V585.844H325.234V321.993Z" fill="white"/>
<path d="M302 122.724C394.797 122.724 471.395 193.341 480.855 283.654H526.809C517.187 168.069 420.078 76.9216 302 76.9216C183.922 76.9216 86.8134 168.042 77.1914 283.654H123.145C132.605 193.341 209.204 122.724 302 122.724Z" fill="white"/>
<path d="M302.001 482.276C209.42 482.276 132.983 411.982 123.226 321.993H77.2188C87.1371 437.281 184.138 528.078 301.974 528.078C419.809 528.078 516.81 437.281 526.728 321.993H480.721C470.964 411.982 394.528 482.276 301.947 482.276H302.001Z" fill="white"/>
<path d="M302 400.962C254.375 400.962 214.54 366.988 205.457 322.02H159.045C168.613 392.368 229.04 446.765 302 446.765C374.959 446.765 435.386 392.368 444.954 322.02H398.543C389.46 366.988 349.624 400.962 302 400.962Z" fill="white"/>
<path d="M301.999 559.197C166.968 559.197 55.9517 454.471 45.9524 322.02H0.0527344C10.1329 479.77 141.714 605 301.999 605C462.284 605 593.865 479.743 603.945 322.02H558.045C548.046 454.498 437.03 559.197 301.999 559.197Z" fill="white"/>
<path d="M302 45.8027C437.246 45.8027 548.398 150.88 558.1 283.653H604C594.216 125.607 462.528 0 302 0C141.472 0 9.78367 125.607 0 283.653H45.8997C55.6025 150.88 166.754 45.8027 302 45.8027Z" fill="white"/>
</g>
</g>
</g>
</g>
<defs>
<clipPath id="clip0_244_1833">
<rect width="515" height="386" fill="white"/>
</clipPath>
</defs>
</svg>
