<svg width="41" height="43" viewBox="0 0 41 43" fill="none" xmlns="http://www.w3.org/2000/svg">
<path d="M0 22.8022H2.95162C3.43185 28.1448 5.67744 32.4819 9.80915 35.7417C12.4445 37.821 15.449 38.9716 18.7859 39.2871V36.8318C14.147 36.2415 10.4523 34.009 7.81631 30.0226C6.38797 27.8626 5.6033 25.4557 5.38986 22.831H8.36227C8.77678 26.3453 10.3315 29.2095 13.0747 31.3671C14.7558 32.6892 16.665 33.466 18.7893 33.7482V31.3049C14.311 30.2852 11.6391 27.4901 10.755 22.8333H13.7825C14.4278 25.6042 16.0769 27.3841 18.8027 28.184V22.8259H21.7308V28.2185C22.2481 28.0147 22.7244 27.8719 23.1608 27.6473C25.0054 26.6983 26.1916 25.1931 26.6836 23.1316C26.7421 22.8863 26.8241 22.7965 27.0858 22.8028C27.9643 22.8241 28.8433 22.8109 29.7633 22.8109C29.4797 24.9962 28.6085 26.8578 27.1296 28.416C25.6535 29.9713 23.8539 30.9047 21.7594 31.2681V33.7171C26.195 33.3342 31.4899 29.4266 32.201 22.8287H35.1751C34.8409 26.5112 33.453 29.6771 30.9339 32.3046C28.4136 34.9333 25.3379 36.4062 21.7605 36.8197V39.2399C28.686 38.9405 36.8455 32.8545 37.5976 22.8345H40.5717C40.5228 23.3435 40.4914 23.8474 40.424 24.346C39.8763 28.3901 38.339 31.9919 35.7379 35.0858C32.4465 39.0009 28.3002 41.4263 23.3029 42.1409C16.3982 43.1285 10.4405 41.0347 5.56904 35.9237C2.42645 32.6253 0.64256 28.6078 0.10054 24.0201C0.0752649 23.8048 0.0337007 23.5917 0 23.3781C0 23.1863 0 22.994 0 22.8022Z" fill="white"/>
<path d="M21.5684 0.805664C21.9914 0.859792 22.4149 0.911041 22.8378 0.967472C27.1532 1.54273 30.926 3.32953 34.1096 6.3676C37.6021 9.70051 39.6921 13.8079 40.3914 18.6512C40.4717 19.2086 40.5178 19.7712 40.5824 20.3545H37.6049C37.1455 15.2152 35.0279 10.9731 31.1102 7.73981C27.8233 5.02707 24.0292 3.74585 19.8104 3.85238C10.9246 4.0758 3.6026 11.2195 2.95836 20.3833H0C0 20.1915 0 19.9992 0 19.8075C0.0179737 19.7464 0.0438109 19.6871 0.0522361 19.6249C0.134803 19.0174 0.185915 18.4042 0.299936 17.803C1.24468 12.8111 3.62395 8.68071 7.46414 5.46297C10.4534 2.95869 13.8841 1.47017 17.7176 0.968624C18.14 0.913344 18.5623 0.859792 18.9847 0.805664C19.8458 0.805664 20.7074 0.805664 21.5684 0.805664Z" fill="white"/>
<path d="M35.1404 20.3574H32.2074C31.6901 14.5075 26.8344 9.57439 20.7351 9.36134C17.5891 9.25135 14.801 10.2516 12.4251 12.3683C10.0582 14.4776 8.73147 17.169 8.36413 20.3626H5.37207C5.87421 15.5394 7.99398 11.7032 11.8802 8.96056C16.6764 5.57583 22.9655 5.41057 27.9616 8.47686C32.8847 11.4988 34.9691 16.6145 35.141 20.3568L35.1404 20.3574Z" fill="white"/>
<path d="M21.8381 12.319C21.3472 12.7457 21.0664 13.2415 21.0608 13.8806C21.0563 14.4064 21.2371 14.8538 21.5803 15.2356C22.47 16.226 22.6818 17.5959 22.1246 18.7833C21.5781 19.9482 20.3918 20.642 19.0983 20.5505C18.9921 20.543 18.8865 20.5177 18.7023 20.4877C18.8646 20.3409 18.9887 20.2528 19.0831 20.1388C19.7206 19.37 19.683 18.3122 18.9972 17.5533C17.6873 16.1022 17.9519 13.8259 19.556 12.748C20.2255 12.2977 21.1068 12.1249 21.8387 12.3196L21.8381 12.319Z" fill="white"/>
</svg>
