<svg width="115" height="80" viewBox="0 0 115 80" fill="none" xmlns="http://www.w3.org/2000/svg">
<path d="M21.8572 75.8922L20.794 77.5692L19.6777 75.8922H18.7209V79.9276H19.6246V77.3072L20.7409 78.9843H20.794L21.9104 77.2548V79.9276H22.8141V75.8922H21.8572Z" fill="#787899"/>
<path d="M33.8711 76.905L34.4027 78.2151H33.2864L33.8711 76.905ZM33.4459 75.8568L31.6916 79.9446H32.5953L32.9674 79.0537H34.7217L35.0938 79.9446H36.0506L34.2964 75.8568H33.4459Z" fill="#787899"/>
<path d="M46.7351 77.8513C47.1604 77.8513 47.4262 77.6417 47.4262 77.2748C47.4262 76.908 47.1604 76.6983 46.7351 76.6983H45.8315V77.8513H46.7351ZM44.9278 75.9122H46.7883C47.3199 75.9122 47.692 76.0694 48.0109 76.3315C48.2236 76.5411 48.3831 76.8555 48.3831 77.2748C48.3831 77.9561 48.0109 78.323 47.4794 78.5326L48.4894 80H47.4262L46.5225 78.6898H45.8315V80H44.9278V75.9122Z" fill="#787899"/>
<path d="M58.3772 75.9122H57.4735V79.9476H58.3772V75.9122Z" fill="#787899"/>
<path d="M70.3904 75.9122V78.3754L68.4236 75.9122H67.6262V79.9476H68.5299V77.3796L70.4967 79.9476H71.2941V75.9122H70.3904Z" fill="#787899"/>
<path d="M82.298 76.905L82.8296 78.2151H81.7133L82.298 76.905ZM81.9259 75.8568L80.1717 79.9446H81.0754L81.4475 79.0537H83.2017L83.5738 79.9446H84.5307L82.7765 75.8568H81.9259Z" fill="#787899"/>
<path d="M94.9498 77.5338C94.2587 77.3766 94.0461 77.2718 94.0461 77.0098C94.0461 76.8001 94.2055 76.6429 94.5777 76.6429C94.9498 76.6429 95.2687 76.8001 95.6408 77.0622L96.1192 76.3809C95.694 76.0664 95.2156 75.8568 94.5777 75.8568C93.7271 75.8568 93.1424 76.3285 93.1424 77.0622C93.1424 77.8483 93.674 78.1103 94.5245 78.32C95.2156 78.4772 95.375 78.6344 95.375 78.844C95.375 79.1061 95.1624 79.2109 94.7903 79.2109C94.3119 79.2109 93.9398 79.0013 93.5676 78.7392L93.0361 79.3681C93.5145 79.7874 94.1524 79.997 94.7903 79.997C95.694 79.997 96.2787 79.5253 96.2787 78.7392C96.2787 78.0055 95.8003 77.7435 94.9498 77.5338Z" fill="#787899"/>
<path d="M0 67.0142L1.1101 65.7146C1.8733 66.3302 2.67119 66.7406 3.64253 66.7406C4.40572 66.7406 4.8567 66.4328 4.8567 65.954V65.9198C4.8567 65.441 4.57918 65.2016 3.15686 64.8596C1.45701 64.415 0.346907 63.9704 0.346907 62.3287V62.2945C0.346907 60.7897 1.56108 59.7978 3.29562 59.7978C4.5098 59.7978 5.58521 60.174 6.41779 60.8581L5.44645 62.2261C4.68325 61.7131 3.95474 61.4053 3.26093 61.4053C2.53242 61.4053 2.18552 61.7131 2.18552 62.1235V62.1577C2.18552 62.7049 2.53242 62.8759 3.98943 63.2521C5.68928 63.6967 6.66062 64.3124 6.66062 65.7488V65.783C6.66062 67.4247 5.37706 68.3481 3.57315 68.3481C2.28959 68.3481 1.00603 67.9035 0 67.0142Z" fill="#787899"/>
<path d="M15.368 64.7556L14.2579 62.0538L13.1477 64.7556H15.368ZM13.4253 59.8649H15.1251L18.733 68.2441H16.7903L16.0271 66.3631H12.4539L11.6907 68.2441H9.78275L13.4253 59.8649Z" fill="#787899"/>
<path d="M22.445 59.9338H28.8975V61.5755H24.3183V63.3539H28.3425V65.0298H24.3183V68.2446H22.445V59.9338Z" fill="#787899"/>
<path d="M32.7829 59.9338H39.1313V61.5413H34.6215V63.2513H38.6109V64.8588H34.6215V66.603H39.2007V68.2446H32.7829V59.9338Z" fill="#787899"/>
<path d="M49.2954 59.9338H51.1687V63.2171H54.5684V59.9338H56.4416V68.2446H54.5684V64.893H51.1687V68.2446H49.2954V59.9338Z" fill="#787899"/>
<path d="M65.7046 64.7556L64.5945 62.0538L63.4844 64.7556H65.7046ZM63.7619 59.8649H65.4617L69.0696 68.2441H67.1269L66.3637 66.3631H62.7906L62.0274 68.2441H60.1194L63.7619 59.8649Z" fill="#787899"/>
<path d="M76.528 63.9691C77.4299 63.9691 77.9503 63.4903 77.9503 62.8063V62.772C77.9503 61.9854 77.3952 61.575 76.4933 61.575H74.6547V63.9691H76.528ZM76.6667 59.9334C77.7421 59.9334 78.5747 60.2412 79.1298 60.7884C79.6154 61.2672 79.8583 61.917 79.8583 62.7036V62.7378C79.8583 64.0717 79.1298 64.9267 78.0544 65.3029L80.1011 68.2784H77.9156L76.1117 65.6107H74.6547V68.2784H72.7814V59.9334H76.6667Z" fill="#787899"/>
<path d="M87.8719 64.7899H85.7211V66.6368H87.9413C88.7739 66.6368 89.2595 66.3632 89.2595 65.7475V65.7133C89.2595 65.1319 88.8432 64.7899 87.8719 64.7899ZM88.7739 62.3616C88.7739 61.8144 88.3229 61.5066 87.5597 61.5066H85.7211V63.2509H87.4209C88.2882 63.2851 88.7739 63.0115 88.7739 62.3616ZM83.9171 59.9334H87.8372C88.8086 59.9334 89.5718 60.207 90.0574 60.6858C90.439 61.062 90.6472 61.5408 90.6472 62.088V62.1222C90.6472 63.0457 90.1268 63.5929 89.5371 63.9007C90.5084 64.2769 91.1328 64.8241 91.1328 65.9527V65.9869C91.1328 67.4918 89.884 68.2784 87.976 68.2784H83.9518V59.9334H83.9171Z" fill="#787899"/>
<path d="M101.713 64.106C101.713 62.6695 100.638 61.4725 99.1459 61.4725C97.6542 61.4725 96.6135 62.6354 96.6135 64.0718V64.106C96.6135 65.5424 97.6889 66.7053 99.1806 66.7053C100.672 66.7053 101.713 65.5424 101.713 64.106ZM94.6708 64.106C94.6708 61.7119 96.5788 59.7625 99.1806 59.7625C101.782 59.7625 103.656 61.6777 103.656 64.0376V64.0718C103.656 66.4317 101.748 68.3811 99.1459 68.3811C96.5441 68.3811 94.6708 66.4659 94.6708 64.106Z" fill="#787899"/>
<path d="M111.427 63.9691C112.329 63.9691 112.849 63.4903 112.849 62.8063V62.772C112.849 61.9854 112.294 61.575 111.392 61.575H109.554V63.9691H111.427ZM111.566 59.9334C112.641 59.9334 113.474 60.2412 114.029 60.7884C114.514 61.2672 114.757 61.917 114.757 62.7036V62.7378C114.757 64.0717 114.029 64.9267 112.953 65.3029L115 68.2784H112.814L111.011 65.6107H109.554V68.2784H107.68V59.9334H111.566Z" fill="#787899"/>
<path d="M80.9532 22.7437C80.745 21.3414 80.4328 20.0076 79.9818 18.6737C79.9818 18.6053 79.9471 18.5711 79.9124 18.5027C79.8084 18.1607 79.6696 17.8187 79.5309 17.4767C79.4962 17.3399 79.4268 17.2373 79.3921 17.1005C79.288 16.8269 79.1492 16.5533 79.0452 16.2797C78.9758 16.1429 78.9064 16.0061 78.837 15.8351C78.733 15.5956 78.5942 15.3562 78.4554 15.1168C78.2473 14.7406 78.0391 14.3644 77.831 14.0224C77.7616 13.9198 77.7269 13.8172 77.6575 13.7146C77.5188 13.4752 77.3453 13.2358 77.1719 12.9622C77.1025 12.8596 77.0331 12.757 76.9637 12.6886C76.8597 12.5518 76.7903 12.415 76.6862 12.2782C76.6515 12.244 76.6168 12.2098 76.6168 12.1756C75.8883 11.1837 75.0557 10.2261 74.1885 9.37107C73.7722 8.96066 73.0784 9.06326 72.8008 9.54208L70.65 13.0648C70.4419 13.441 70.4766 13.8856 70.7541 14.2276C72.7662 16.4849 74.2232 19.2552 74.8823 22.299C74.917 22.7779 74.5354 23.1883 74.015 23.1883H65.377C65.0301 23.1883 64.7526 22.9831 64.6138 22.7095C64.1975 21.8544 63.6772 21.0678 62.9834 20.3838C61.1447 18.5711 58.6817 17.8187 56.2881 18.0581C55.9411 18.0923 55.6289 17.9555 55.4555 17.6477L50.9804 10.3287C50.7375 9.95249 50.8763 9.43947 51.2579 9.20007C51.4313 9.09746 51.6048 9.02906 51.8129 8.99486C52.0211 8.92646 52.1945 8.85806 52.4027 8.82385C53.6515 8.48184 54.9351 8.31084 56.184 8.24244C56.4962 8.20824 56.8431 8.20824 57.1553 8.20824C61.2488 8.20824 65.0995 9.50787 68.0482 11.8335C68.4645 12.1413 69.0196 12.0387 69.2971 11.6283L71.4826 8.07143C71.6907 7.69522 71.6214 7.21641 71.2398 6.977L71.2051 6.9428C71.1704 6.9086 71.1357 6.8744 71.101 6.8744C70.9622 6.7718 70.7888 6.66919 70.6153 6.56659C70.5459 6.53239 70.5113 6.49819 70.4419 6.46399C67.5625 4.44613 64.2322 3.18069 60.6938 2.66768C58.7164 2.49667 58.8205 0 57.19 0C55.5595 0 55.6636 2.49667 53.6862 2.66768C52.0558 2.90708 50.46 3.28329 48.9336 3.83051C48.9336 3.83051 48.8642 3.86471 48.8295 3.86471C48.552 3.96731 48.3092 4.06992 48.0317 4.17252C47.997 4.17252 47.997 4.20672 47.9623 4.20672C47.6847 4.30932 47.4072 4.44613 47.1297 4.58293C47.095 4.58293 47.0603 4.61713 47.0256 4.61713C46.7481 4.75394 46.4706 4.89074 46.2277 5.02754C46.193 5.02754 46.1583 5.06175 46.1583 5.06175C45.8808 5.19855 45.6033 5.33535 45.3258 5.50636C45.2217 5.57476 44.9789 5.71156 44.9789 5.74577C42.9321 7.1138 43.3137 8.78965 44.1116 10.2261L44.3891 10.6707L48.3786 17.2031L50.4947 20.6574C50.6681 20.931 50.6681 21.3072 50.46 21.5466C50.2172 21.9228 49.9743 22.299 49.8009 22.7095C49.6621 23.0173 49.3499 23.1883 49.0377 23.1883H40.3997C39.914 23.1883 39.5324 22.7779 39.5324 22.299C40.1915 19.2552 41.6486 16.4849 43.6953 14.2276C43.9381 13.954 44.0075 13.5094 43.7994 13.2016L41.5098 9.57628C41.2323 9.09746 40.5731 9.02906 40.1915 9.40527C39.3243 10.2603 38.4917 11.2179 37.7632 12.2098C37.7285 12.244 37.6938 12.2782 37.6938 12.3124C37.5897 12.4492 37.5204 12.586 37.4163 12.7228C37.3469 12.8254 37.2775 12.928 37.2081 13.0306C37.0347 13.27 36.8959 13.5094 36.7225 13.7488C36.6531 13.8514 36.5837 13.9882 36.5143 14.0908C36.3409 14.3644 36.2021 14.638 36.0287 14.9116C35.8552 15.2194 35.6817 15.5614 35.543 15.8693C35.4736 16.0061 35.4042 16.1429 35.3348 16.2797C35.1961 16.5533 35.092 16.8269 34.9879 17.1005C34.9532 17.2031 34.8839 17.3399 34.8492 17.4425C34.7104 17.7845 34.5716 18.1265 34.4676 18.5027C34.4329 18.5369 34.4329 18.6053 34.4329 18.6395C33.9819 19.9392 33.6697 21.3072 33.4615 22.7095C33.184 24.5563 30.7557 24.4879 30.7557 26.0612C30.7557 27.6344 33.184 27.566 33.4615 29.3786C33.7391 31.2597 34.2247 33.1066 34.9185 34.8166C34.9185 34.8508 34.9532 34.885 34.9532 34.9192C35.1267 35.3296 35.3001 35.74 35.4736 36.1162C35.4736 36.1504 35.5083 36.1504 35.5083 36.1846C35.7164 36.5951 35.9246 37.0055 36.1327 37.4159C36.1327 37.4501 36.1674 37.4843 36.1674 37.5185C36.3756 37.8605 36.549 38.2025 36.7572 38.5445C36.8265 38.6471 36.8959 38.7839 37 38.8865C37.1734 39.1601 37.3469 39.3995 37.5204 39.6731C37.555 39.7415 37.5897 39.8099 37.6591 39.8441C37.6591 39.8783 37.6938 39.8784 37.6938 39.8784C38.4223 40.8702 39.2202 41.8278 40.0875 42.6828C40.4691 43.059 41.1282 42.9906 41.4057 42.5118L43.6259 38.8523C43.8341 38.5445 43.7994 38.0999 43.5219 37.8263C41.5098 35.569 40.0875 32.8329 39.4283 29.8233C39.3937 29.3444 39.7753 28.934 40.2609 28.934H48.8989C49.2458 28.934 49.5234 29.1392 49.6621 29.4128C50.0437 30.2679 50.5988 31.0545 51.2926 31.7385C53.1312 33.5512 55.5942 34.3036 57.9879 34.0642C58.3348 34.03 58.647 34.1668 58.8205 34.4746L63.2956 41.7936C63.469 42.0672 63.4343 42.4092 63.2956 42.6486C63.1915 42.8196 63.0181 42.9564 62.8446 43.0248C61.2488 43.5721 59.1674 43.9483 57.1206 43.9483C52.9924 43.9483 49.1764 42.6144 46.1237 40.2546C45.7074 39.9468 45.1176 40.0152 44.8401 40.4598L42.6893 44.0167C42.4811 44.3929 42.5505 44.8717 42.8974 45.1111C42.9668 45.1795 43.0362 45.2137 43.1056 45.2821L43.1403 45.3163C43.1749 45.3505 43.2443 45.3847 43.279 45.4189C43.5219 45.5899 43.7647 45.7609 44.0075 45.8977C44.1463 46.0003 44.3197 46.1029 44.4585 46.1713C44.736 46.3423 44.9789 46.4791 45.2564 46.6501C45.3605 46.7185 45.4992 46.7869 45.6033 46.8554C45.9849 47.0606 46.3318 47.2316 46.7134 47.4368C46.8522 47.5052 47.0256 47.5736 47.1644 47.642C47.4072 47.7446 47.6501 47.8472 47.8929 47.9498C48.0663 48.0182 48.2398 48.0866 48.4132 48.155C48.6561 48.2576 48.8989 48.326 49.1071 48.4286C49.2805 48.497 49.454 48.5654 49.6274 48.5996C49.8703 48.668 50.1478 48.7706 50.4253 48.839C50.5641 48.8732 50.7375 48.9416 50.8763 48.9758C51.2579 49.0784 51.6048 49.1468 51.9864 49.2494C52.0558 49.2494 52.0905 49.2836 52.1598 49.2836C52.6108 49.3862 53.0618 49.4546 53.5128 49.523H53.5475C55.5249 49.694 55.4208 52.1907 57.0512 52.1907C58.6817 52.1907 58.5776 49.694 60.555 49.523H60.5897C60.7632 49.4888 60.9366 49.4546 61.1448 49.4204C61.3529 49.3862 61.5957 49.352 61.8039 49.3178C61.9079 49.2836 62.012 49.2836 62.1161 49.2494C62.4283 49.181 62.7405 49.1126 63.0527 49.0442H63.0874C64.6138 48.668 66.0708 48.155 67.4585 47.471C67.4585 47.471 68.4645 46.9922 68.9502 46.7185C71.3785 45.3163 71.0316 43.5037 70.1644 42.033L70.095 41.9304L68.7767 39.7757L63.8159 31.6017C63.6425 31.3281 63.6425 30.9519 63.8506 30.7125C64.0935 30.3363 64.3363 29.9601 64.5098 29.5497C64.6485 29.2418 64.9607 29.0708 65.273 29.0708H73.9109C74.3966 29.0708 74.7782 29.4812 74.7435 29.9601C74.0844 32.9698 72.6274 35.7058 70.65 37.9631C70.3725 38.2709 70.3378 38.7497 70.5459 39.0917L72.7315 42.6486C73.009 43.1274 73.6681 43.1958 74.0844 42.8196C74.9864 41.9304 75.7842 41.007 76.5128 39.981L76.5474 39.9468C76.6168 39.8441 76.6515 39.7757 76.7209 39.6731C76.825 39.5363 76.929 39.3995 76.9984 39.2627C77.1372 39.0575 77.276 38.8181 77.4147 38.6129C77.6229 38.2709 77.831 37.9631 78.0045 37.6211C78.0391 37.5869 78.0391 37.5527 78.0738 37.5185C78.282 37.1081 78.4901 36.6977 78.6983 36.2872C78.6983 36.253 78.733 36.253 78.733 36.2188C78.9064 35.8426 79.0799 35.4322 79.2533 35.0218C79.2533 34.9876 79.2533 34.9876 79.288 34.9534C79.4615 34.5088 79.6349 34.0984 79.7737 33.6538C80.2247 32.3199 80.5716 30.9177 80.7797 29.4812C81.0572 27.6686 83.4856 27.737 83.4856 26.1638C83.659 24.4879 81.2307 24.5563 80.9532 22.7437ZM60.1387 30.0627L57.19 27.9422L54.2413 30.0627L55.3514 26.6426L52.4027 24.5221H56.0452L57.1553 21.102L58.2654 24.5221H61.908L59.0286 26.6768L60.1387 30.0627Z" fill="#787899"/>
</svg>
