<svg width="132" height="47" viewBox="0 0 132 47" fill="none" xmlns="http://www.w3.org/2000/svg">
<path d="M109.271 1.52141C109.748 0.470639 110.564 -0.309342 111.776 0.120384C112.545 0.393132 112.945 0.987684 112.974 1.90404C113.057 4.42058 111.53 6.57117 109.558 7.94669C109.536 7.96238 109.507 7.95552 109.491 7.93295C109.49 7.93001 109.488 7.92706 109.487 7.92314C108.735 5.89224 108.345 3.56113 109.271 1.52141Z" fill="#787899"/>
<path d="M8.19552 24.6991C9.67771 25.1652 11.422 24.3459 11.5179 22.6388C11.6081 21.0612 10.0214 20.289 8.79466 19.8475C6.70574 19.097 4.57788 18.4141 2.82888 17.0887C0.678235 15.459 -0.116507 13.023 0.0135765 10.3318C0.213923 6.21112 3.37485 2.93814 7.22892 2.21114C8.51171 1.96881 9.82773 1.9953 11.176 2.28865C15.352 3.19617 17.4846 6.60258 17.7476 10.84C17.7495 10.8694 17.7277 10.8949 17.6992 10.8969C17.6982 10.8969 17.6963 10.8969 17.6954 10.8969H11.7875C11.7628 10.8969 11.7438 10.8773 11.7429 10.8518C11.7144 9.5773 11.063 8.50789 9.81444 8.20277C8.54589 7.89274 6.9621 8.37446 6.4864 9.73428C5.85402 11.5425 7.03427 12.4902 8.50886 13.0092C8.90955 13.1505 9.73468 13.4026 10.9833 13.7647C14.1736 14.6899 16.9434 16.6629 17.5928 20.2223C18.3116 24.1566 16.5636 27.9221 13.1634 29.7577C10.9149 30.9723 8.2316 31.1146 5.80275 30.3709C2.15947 29.2544 -0.00921183 25.9334 0.00977841 22.059C0.00977841 22.0305 0.0316172 22.008 0.059153 22.008H6.18066C6.20819 22.008 6.22338 22.0217 6.22623 22.0501C6.35252 23.4433 7.00958 24.3263 8.19552 24.6991Z" fill="#787899"/>
<path d="M91.3322 30.7547C85.0597 30.22 80.0454 25.6843 78.8879 19.2845C77.5795 12.0469 81.3006 4.96329 88.2055 2.78032C90.2811 2.12396 92.4944 1.92774 94.8454 2.19165C98.313 2.58115 101.242 4.21372 103.67 6.75381C103.686 6.77147 103.686 6.79894 103.67 6.8166C103.67 6.8166 103.67 6.8166 103.669 6.81758L99.3195 10.9608C99.2692 11.0089 99.2179 11.0099 99.1657 10.9618C96.9495 8.92795 93.9975 7.88699 91.0958 8.49626C86.4318 9.4754 84.3087 14.2976 85.4225 18.8185C86.5913 23.5622 91.2876 25.4047 95.5832 24.1891C97.8259 23.5543 99.5341 21.9365 99.8408 19.4798C99.8493 19.416 99.8218 19.3836 99.7591 19.3836H92.4479C92.4213 19.3836 92.4004 19.362 92.4004 19.3346V13.6932C92.4004 13.6608 92.4166 13.6441 92.4479 13.6441H106.712C106.742 13.6441 106.756 13.6589 106.757 13.6893C106.769 14.9883 106.768 16.0518 106.754 16.8798C106.666 22.3112 104.051 27.4925 99.0432 29.6323C96.6618 30.6497 93.9519 30.9784 91.3332 30.7547H91.3322Z" fill="#787899"/>
<path d="M131.662 10.7066V10.8783L125.685 10.89C125.649 10.89 125.632 10.8714 125.632 10.8351C125.643 7.02053 119.954 7.31781 120.262 10.9361C120.358 12.0644 121.389 12.6531 122.342 12.9641C124.218 13.5763 126.174 14.0041 127.893 15.0764C130.366 16.6158 131.372 18.5564 131.662 21.5233V22.578C131.257 27.6591 127.115 31.0184 122.284 30.8085C117.428 30.5976 113.905 27.1607 113.911 22.0501C113.911 22.0266 113.929 22.0079 113.951 22.0079H120.102C120.134 22.0079 120.151 22.0246 120.152 22.057C120.215 23.6307 121.366 24.8169 122.879 24.8237C124.12 24.8286 125.258 24.1468 125.398 22.783C125.572 21.0739 124.011 20.3224 122.712 19.8495C118.915 18.4661 114.881 17.3006 114.049 12.5452C113.135 7.31585 116.698 2.74781 121.698 2.12284C122.867 1.97665 124.063 2.04631 125.283 2.33182C129.323 3.2776 131.31 6.61043 131.662 10.7066Z" fill="#787899"/>
<path d="M30.0137 29.9304H23.7051C23.6776 29.9304 23.6548 29.9069 23.6548 29.8784V3.00195C23.6548 2.9735 23.6776 2.94995 23.7051 2.94995H30.0137C30.0412 2.94995 30.064 2.9735 30.064 3.00195V13.4939C30.064 13.5224 30.0868 13.5459 30.1143 13.5459H40.1972C40.2247 13.5459 40.2475 13.5224 40.2475 13.4939V3.00195C40.2475 2.9735 40.2703 2.94995 40.2978 2.94995H46.5589C46.5864 2.94995 46.6092 2.9735 46.6092 3.00195V29.8784C46.6092 29.9069 46.5864 29.9304 46.5589 29.9304H40.2978C40.2703 29.9304 40.2475 29.9069 40.2475 29.8784V19.3374C40.2475 19.309 40.2247 19.2854 40.1972 19.2854H30.1143C30.0868 19.2854 30.064 19.309 30.064 19.3374V29.8784C30.064 29.9069 30.0412 29.9304 30.0137 29.9304Z" fill="#787899"/>
<path d="M60.1152 30.4534C55.4265 29.3114 52.9749 25.4576 52.973 20.605C52.9701 14.739 52.9701 8.86898 52.972 2.99606C52.972 2.97055 52.992 2.94995 53.0167 2.94995H59.2882C59.3138 2.94995 59.3347 2.97154 59.3347 2.99803C59.3319 8.62076 59.33 14.2455 59.3309 19.8741C59.3319 21.02 59.5502 22.3592 60.1798 23.2658C61.1464 24.657 62.903 24.915 64.4535 24.5451C66.7988 23.9859 67.1387 21.6813 67.1406 19.5827C67.1435 14.0571 67.1444 8.52853 67.1416 2.99704C67.1416 2.97055 67.1625 2.94995 67.1881 2.94995H73.5062C73.5318 2.94995 73.5518 2.97055 73.5518 2.99704V21.1495C73.5518 21.8942 73.4445 22.7095 73.2308 23.5935C71.7572 29.6852 65.4667 31.7582 60.1152 30.4534Z" fill="#787899"/>
<path d="M63.8553 43.7534C63.8667 43.7328 63.8591 43.7072 63.8391 43.6955C63.8334 43.6915 63.8268 43.6906 63.8201 43.6906H62.1101C62.0787 43.6906 62.0626 43.6739 62.0626 43.6415V41.5567C62.0626 41.5076 62.0863 41.4831 62.1338 41.4831H66.4313C66.4569 41.4831 66.4769 41.5037 66.4769 41.5302C66.4816 42.4975 66.5424 43.4777 66.154 44.4038C65.5549 45.8362 64.3414 46.7644 62.8212 46.9528C59.9888 47.303 57.6113 45.4605 57.5287 42.4406C57.4869 40.9111 58.0148 39.6592 59.1115 38.6849C61.1254 36.8964 64.4202 37.3761 65.8483 39.667C65.8635 39.6896 65.8568 39.721 65.8341 39.7367C65.8341 39.7367 65.8321 39.7377 65.8312 39.7387L63.7907 40.9395C63.766 40.9543 63.7347 40.9464 63.7185 40.9229C62.9162 39.7563 61.0884 39.9427 60.3924 41.0367C59.7201 42.0943 59.9907 43.9407 61.2545 44.4293C62.1063 44.758 63.3454 44.6766 63.8553 43.7534Z" fill="#787899"/>
<path d="M88.2625 42.4208C87.2456 41.5329 87.1573 39.9749 87.8742 38.8653C88.2388 38.3012 88.7905 37.9254 89.5292 37.738C91.1975 37.3132 93.0946 37.9293 93.7821 39.6669C93.7954 39.6992 93.7868 39.7247 93.7574 39.7424L91.7776 40.9403C91.7501 40.957 91.715 40.9472 91.6988 40.9188C91.6969 40.9158 91.696 40.9129 91.695 40.9099C91.4653 40.2683 91.0361 39.9739 90.4084 40.0269C89.8853 40.0711 89.6954 40.6362 90.21 40.8991C90.9639 41.2827 91.9353 41.4289 92.6104 41.7851C93.7954 42.412 94.2388 43.4314 93.9416 44.8451C93.5077 46.9084 91.0836 47.2361 89.4323 46.8692C88.2616 46.6092 87.4555 45.9136 87.0139 44.7824C86.9997 44.7461 87.0082 44.7186 87.0415 44.699L89.1162 43.4598C89.1285 43.452 89.1446 43.4569 89.1513 43.4706C89.1513 43.4716 89.1522 43.4726 89.1532 43.4736C89.5245 44.3673 90.1863 44.7235 91.1367 44.542C91.639 44.4468 91.6409 43.8788 91.1832 43.7198C90.1388 43.3568 89.1342 43.1822 88.2625 42.4208Z" fill="#787899"/>
<path d="M43.2006 42.1961C43.7798 42.6141 44.1444 43.0497 44.2204 43.8042C44.4255 45.8508 43.0392 46.773 41.2617 46.7779C40.0387 46.7818 38.8129 46.7828 37.5852 46.7799C37.5605 46.7799 37.5415 46.7593 37.5415 46.7338V37.8508C37.5415 37.8263 37.5605 37.8067 37.5842 37.8067C38.7303 37.8018 39.8792 37.7998 41.031 37.8008C42.5027 37.8018 43.8567 38.3865 43.982 40.1034C44.0438 40.9443 43.7817 41.6183 43.1968 42.1235C43.1674 42.1491 43.1693 42.1736 43.2006 42.1961ZM41.4896 40.5273C41.4127 39.8984 40.485 40.0259 40.0805 40.0397C40.0492 40.0407 40.034 40.0573 40.034 40.0887V41.1375C40.034 41.1738 40.052 41.1944 40.0871 41.1974C40.636 41.2494 41.5864 41.322 41.4896 40.5273ZM41.6852 43.6541C41.4972 43.1792 40.4907 43.3234 40.0938 43.3117C40.0539 43.3107 40.034 43.3303 40.034 43.3715V44.5233C40.034 44.5577 40.0501 44.5744 40.0833 44.5744C40.5771 44.5763 42.1096 44.7284 41.6852 43.6541Z" fill="#787899"/>
<path d="M52.1798 45.6281H49.7747C49.7528 45.6281 49.7348 45.6428 49.7291 45.6644L49.4547 46.7446C49.449 46.7661 49.431 46.7809 49.4091 46.7809H46.8141C46.7885 46.7809 46.7676 46.7593 46.7676 46.7328C46.7676 46.7279 46.7676 46.723 46.7695 46.7181L49.5088 37.8371C49.5155 37.8174 49.5335 37.8037 49.5534 37.8037H52.401C52.421 37.8037 52.439 37.8174 52.4457 37.8371L55.1831 46.7181C55.1907 46.7436 55.1774 46.7701 55.1527 46.7789C55.148 46.7809 55.1432 46.7809 55.1385 46.7809H52.5444C52.5226 46.7809 52.5045 46.7661 52.4988 46.7446L52.2254 45.6644C52.2197 45.6428 52.2016 45.6281 52.1798 45.6281ZM50.2884 43.5246C50.2836 43.5432 50.2941 43.5618 50.3121 43.5667C50.315 43.5667 50.3178 43.5677 50.3207 43.5677H51.6329C51.6509 43.5677 51.6661 43.553 51.6661 43.5334C51.6661 43.5304 51.6661 43.5275 51.6652 43.5246L51.009 41.0041C51.0043 40.9854 50.9863 40.9747 50.9692 40.9786C50.9568 40.9815 50.9473 40.9913 50.9445 41.0041L50.2884 43.5246Z" fill="#787899"/>
<path d="M72.4082 44.4017H75.5492C75.5729 44.4017 75.5929 44.4223 75.5929 44.4468V46.7357C75.5929 46.7602 75.5729 46.7809 75.5492 46.7809H69.9157C69.892 46.7809 69.8721 46.7602 69.8721 46.7357V37.8488C69.8721 37.8243 69.892 37.8037 69.9157 37.8037H75.478C75.5017 37.8037 75.5217 37.8243 75.5217 37.8488V40.1132C75.5217 40.1378 75.5017 40.1584 75.478 40.1584H72.4092C72.3854 40.1584 72.3655 40.179 72.3655 40.2035V41.0698C72.3645 41.0943 72.3845 41.115 72.4082 41.115H75.1694C75.1931 41.115 75.2131 41.1356 75.2131 41.1601V43.4C75.2131 43.4245 75.1931 43.4451 75.1694 43.4451H72.4082C72.3845 43.4451 72.3645 43.4657 72.3645 43.4902V44.3565C72.3645 44.3811 72.3845 44.4017 72.4082 44.4017Z" fill="#787899"/>
<path d="M81.5713 44.279H84.3325C84.3562 44.279 84.3762 44.2996 84.3762 44.3242V46.7357C84.3762 46.7602 84.3562 46.7809 84.3325 46.7809H79.0788C79.0551 46.7809 79.0352 46.7602 79.0352 46.7357V37.8488C79.0352 37.8243 79.0551 37.8037 79.0788 37.8037H81.4839C81.5077 37.8037 81.5276 37.8243 81.5276 37.8488V44.2339C81.5276 44.2584 81.5476 44.279 81.5713 44.279Z" fill="#787899"/>
<path d="M34.2426 40.4773H0.0582448C0.0325492 40.4773 0.0117188 40.4988 0.0117188 40.5254V41.8518C0.0117188 41.8784 0.0325492 41.8999 0.0582448 41.8999H34.2426C34.2683 41.8999 34.2891 41.8784 34.2891 41.8518V40.5254C34.2891 40.4988 34.2683 40.4773 34.2426 40.4773Z" fill="#787899"/>
<path d="M131.513 40.4773H97.3207C97.2908 40.4773 97.2666 40.5023 97.2666 40.5332V41.844C97.2666 41.8749 97.2908 41.8999 97.3207 41.8999H131.513C131.543 41.8999 131.567 41.8749 131.567 41.844V40.5332C131.567 40.5023 131.543 40.4773 131.513 40.4773Z" fill="#787899"/>
<path d="M34.235 42.5142H0.0658409C0.0359501 42.5142 0.0117188 42.5392 0.0117188 42.5701V43.8553C0.0117188 43.8862 0.0359501 43.9113 0.0658409 43.9113H34.235C34.2649 43.9113 34.2891 43.8862 34.2891 43.8553V42.5701C34.2891 42.5392 34.2649 42.5142 34.235 42.5142Z" fill="#787899"/>
<path d="M131.541 42.5142H97.2922C97.2781 42.5142 97.2666 42.526 97.2666 42.5407V43.8848C97.2666 43.8994 97.2781 43.9113 97.2922 43.9113H131.541C131.555 43.9113 131.567 43.8994 131.567 43.8848V42.5407C131.567 42.526 131.555 42.5142 131.541 42.5142Z" fill="#787899"/>
</svg>
