<svg width="94" height="63" viewBox="0 0 94 63" fill="none" xmlns="http://www.w3.org/2000/svg">
<path d="M21.7312 2.33666H18.3112V0.000683075H27.7874V2.33666H24.3674V12.1053H21.7312V2.33666Z" fill="#787899"/>
<path d="M40.1853 0V12.1754H37.5491V7.00792H32.9178V12.1754H30.2816V0H32.9178V4.67194H37.5491V0H40.1853Z" fill="#787899"/>
<path d="M51.6562 9.76861V12.1046H43.8187V0H51.5137V2.33597H46.455V4.67194H51.3V7.00792H46.455V9.76861H51.6562Z" fill="#787899"/>
<path d="M8.55003 23.7135C8.90628 24.209 9.04878 24.8461 9.04878 25.4832C9.04878 26.2618 8.83503 26.8989 8.47878 27.3944C8.12253 27.8899 7.62378 28.3146 6.98252 28.5978C6.34127 28.8809 5.55752 29.0225 4.70252 29.0225H0V16.8471H4.20376C5.13002 16.8471 5.91377 16.9887 6.55502 17.2011C7.19628 17.4134 7.69503 17.8382 8.05128 18.2629C8.40753 18.7584 8.55003 19.3247 8.55003 19.9618C8.55003 21.2359 8.05128 22.0854 6.98252 22.5809C7.76628 22.864 8.26503 23.218 8.55003 23.7135ZM2.56501 19.1123V21.7314H4.06126C4.70252 21.7314 5.13002 21.6607 5.41502 21.4483C5.70002 21.2359 5.91377 20.882 5.91377 20.4573C5.91377 20.0326 5.77127 19.6786 5.41502 19.4663C5.13002 19.2539 4.70252 19.1123 4.13251 19.1123H2.56501ZM5.91377 26.3326C6.27002 26.1202 6.41252 25.7663 6.41252 25.2708C6.41252 24.7753 6.27002 24.4214 5.91377 24.209C5.62877 23.9966 5.13002 23.8551 4.56002 23.8551H2.56501V26.6865H4.63127C5.20127 26.6865 5.62877 26.6158 5.91377 26.3326Z" fill="#787899"/>
<path d="M12.1125 16.8471H14.7487V29.0225H12.1125V16.8471Z" fill="#787899"/>
<path d="M24.6524 29.0225L20.9474 23.3595V29.0225H18.3112V16.8471H22.7999C24.2962 16.8471 25.4362 17.2011 26.2912 17.8382C27.1462 18.4752 27.5737 19.4663 27.5737 20.6696C27.5737 21.6607 27.2887 22.4393 26.7899 23.0056C26.2199 23.5719 25.5074 23.9966 24.4387 24.209L27.7874 29.0225H24.6524ZM22.1587 22.4393C23.0849 22.4393 23.7262 22.2977 24.1537 22.0146C24.5812 21.7314 24.7949 21.3067 24.7949 20.7404C24.7949 20.1741 24.5812 19.7494 24.2249 19.537C23.8687 19.2539 23.2987 19.1123 22.5149 19.1123H20.8762V22.4393H22.1587Z" fill="#787899"/>
<path d="M33.1315 19.1831H29.7115V16.8471H39.1878V19.1831H35.7678V29.0225H33.1315V19.1831Z" fill="#787899"/>
<path d="M51.6562 16.8471V29.0225H49.0199V23.8551H44.3887V29.0225H41.7524V16.8471H44.3887V21.5191H49.0199V16.8471H51.6562Z" fill="#787899"/>
<path d="M62.4863 17.555C63.5551 18.0505 64.3388 18.6876 64.9088 19.6078C65.4788 20.5281 65.7639 21.5899 65.7639 22.7933C65.7639 24.0674 65.4788 25.2 64.9088 26.1202C64.3388 27.0405 63.4838 27.7483 62.4151 28.2439C61.3463 28.7394 60.0638 28.9517 58.6388 28.9517H55.3613V16.8471H58.6388C60.0638 16.8471 61.4176 17.0595 62.4863 17.555ZM60.9188 26.191C61.5601 25.9079 62.0588 25.4832 62.4151 24.9169C62.7713 24.3506 62.9851 23.6427 62.9851 22.7933C62.9851 21.5191 62.6288 20.6696 61.8451 20.1033C61.1326 19.537 59.9926 19.2539 58.5676 19.2539H57.8551V26.6865H58.5676C59.4938 26.6158 60.2776 26.4742 60.9188 26.191Z" fill="#787899"/>
<path d="M74.5991 26.8993H70.3241L69.469 29.0229H66.6903L72.3903 16.6352H72.7466L78.3753 29.0229H75.5253L74.5991 26.8993ZM72.4616 21.4487L71.0366 24.7757H73.8153L72.4616 21.4487Z" fill="#787899"/>
<path d="M89.2056 16.8471L84.6456 24.4214V29.0225H82.0093V24.5629L77.4493 16.8471H80.5843L83.2918 21.873L85.9993 16.8471H89.2056Z" fill="#787899"/>
<path d="M24.9376 34.1901C25.6501 34.4732 26.2201 34.9688 26.6476 35.6058C27.0751 36.2429 27.2176 36.9508 27.2176 37.7295C27.2176 39.0744 26.7901 40.1362 25.8639 40.7733C24.9376 41.4812 23.6551 41.8351 22.0164 41.8351H20.8764V45.87H18.2401V33.6946H22.3726C23.3701 33.6946 24.2251 33.8362 24.9376 34.1901ZM23.9401 39.0744C24.3676 38.7913 24.5101 38.3665 24.5101 37.6587C24.5101 37.0924 24.2964 36.6676 23.9401 36.3845C23.5839 36.1013 23.0139 36.0306 22.3014 36.0306H20.8764V39.4991H22.0876C22.8714 39.4991 23.5126 39.3576 23.9401 39.0744Z" fill="#787899"/>
<path d="M35.4826 43.7458H31.2076L30.3526 45.7987H27.5738L33.2738 33.4109H33.6301L39.2588 45.7987H36.4088L35.4826 43.7458ZM33.3451 38.2952L31.9913 41.6222H34.7701L33.3451 38.2952Z" fill="#787899"/>
<path d="M47.8093 45.87L44.1043 40.2778V45.87H41.468V33.6946H45.9568C47.453 33.6946 48.593 34.0485 49.448 34.6856C50.303 35.3227 50.7305 36.3137 50.7305 37.5171C50.7305 38.5081 50.4455 39.2868 49.9468 39.8531C49.3768 40.4194 48.6643 40.8441 47.5955 41.0564L51.0155 45.87H47.8093ZM45.3868 39.2868C46.313 39.2868 46.9543 39.1452 47.3818 38.862C47.8093 38.5789 48.023 38.1542 48.023 37.5879C48.023 37.0216 47.8093 36.5969 47.453 36.3845C47.0968 36.1013 46.5268 35.9598 45.743 35.9598H44.1043V39.2868H45.3868Z" fill="#787899"/>
<path d="M56.3589 36.0306H52.9389V33.6946H62.4152V36.0306H58.9952V45.7992H56.3589V36.0306Z" fill="#787899"/>
<path d="M75.8812 33.6945L71.3212 41.2687V45.799H68.685V41.3395L64.125 33.6237H67.26L69.9675 38.6496L72.675 33.6237H75.8812V33.6945Z" fill="#787899"/>
<path d="M18.7386 51.0369C19.4511 51.3201 20.0211 51.8156 20.4486 52.4527C20.8761 53.0897 21.0186 53.7976 21.0186 54.5763C21.0186 55.9212 20.5911 56.983 19.6649 57.6201C18.7386 58.328 17.4561 58.6819 15.8174 58.6819H14.6774V62.7168H12.1124V50.5414H16.2449C17.1711 50.5414 18.0261 50.683 18.7386 51.0369ZM17.7411 55.9212C18.1686 55.6381 18.3111 55.2134 18.3111 54.5055C18.3111 53.9392 18.0974 53.5145 17.7411 53.2313C17.3849 52.9482 16.8149 52.8774 16.1024 52.8774H14.6774V56.3459H15.8174C16.6724 56.3459 17.3136 56.2044 17.7411 55.9212Z" fill="#787899"/>
<path d="M29.9959 62.7168L26.2909 57.1246V62.7168H23.6547V50.5414H28.1434C29.6397 50.5414 30.7797 50.8954 31.6347 51.5324C32.4897 52.1695 32.9172 53.1605 32.9172 54.3639C32.9172 55.3549 32.6322 56.1336 32.1334 56.6999C31.5634 57.2662 30.8509 57.6909 29.7822 57.9033L33.2022 62.7168H29.9959ZM27.5022 56.1336C28.4284 56.1336 29.0697 55.992 29.4972 55.7089C29.9247 55.4257 30.1384 55.001 30.1384 54.4347C30.1384 53.8684 29.9247 53.4437 29.5684 53.2313C29.2122 52.9482 28.6422 52.8066 27.8584 52.8066H26.2197V56.1336H27.5022Z" fill="#787899"/>
<path d="M38.4748 62.2212C37.4773 61.7257 36.6936 61.0178 36.1236 60.0268C35.5536 59.0357 35.1973 57.9032 35.1973 56.629C35.1973 55.284 35.4823 54.0807 36.1236 53.1604C36.7648 52.2402 37.5486 51.4615 38.4748 50.966C39.4724 50.4705 40.4699 50.2582 41.4674 50.2582C42.5361 50.2582 43.5336 50.4705 44.5311 50.966C45.5286 51.4615 46.3124 52.1694 46.9536 53.1604C47.5949 54.1514 47.8799 55.284 47.8799 56.629C47.8799 57.9739 47.5949 59.1065 46.9536 60.0268C46.3124 60.947 45.5286 61.7257 44.5311 62.2212C43.5336 62.7167 42.5361 62.929 41.4674 62.929C40.4699 62.929 39.4724 62.7167 38.4748 62.2212ZM43.3199 60.0268C43.8899 59.7436 44.3174 59.3189 44.6736 58.7526C45.0299 58.1863 45.1724 57.4784 45.1724 56.6998C45.1724 55.8503 45.0299 55.1425 44.6736 54.5762C44.3174 54.0099 43.8899 53.5851 43.3199 53.302C42.7499 53.0188 42.1799 52.8773 41.5386 52.8773C40.8974 52.8773 40.3274 53.0188 39.7574 53.302C39.1874 53.5851 38.7598 54.0099 38.4748 54.5762C38.1186 55.1425 37.9761 55.8503 37.9761 56.6998C37.9761 57.4784 38.1186 58.1863 38.4748 58.7526C38.8311 59.3189 39.2586 59.7436 39.8286 60.0268C40.3986 60.3099 40.9686 60.4515 41.6099 60.4515C42.2511 60.4515 42.7499 60.3099 43.3199 60.0268Z" fill="#787899"/>
<path d="M57.0711 58.5401C57.0711 59.5311 56.8574 60.3098 56.5011 60.9469C56.1449 61.5839 55.6461 62.0795 55.0048 62.4334C54.3636 62.7873 53.6511 62.9289 52.8673 62.9289C52.0123 62.9289 51.2998 62.7873 50.7298 62.5042C50.1598 62.221 49.6611 61.7963 49.1623 61.23L50.8723 59.4603C51.1573 59.8143 51.4423 60.0974 51.7986 60.239C52.1548 60.3806 52.4398 60.4514 52.8673 60.4514C53.3661 60.4514 53.7936 60.3098 54.0786 59.9558C54.3636 59.6019 54.5061 59.1772 54.5061 58.4693V52.7356H50.3736L50.9436 50.3996H57.1424V58.5401H57.0711Z" fill="#787899"/>
<path d="M68.4 62.7168H60.5625V50.5414H68.2575V52.8774H63.1987V55.2134H68.0437V57.5493H63.1987V60.31H68.4V62.7168Z" fill="#787899"/>
<path d="M73.8151 62.1504C72.8889 61.5841 72.1764 60.8762 71.6064 59.8852C71.0364 58.8942 70.8226 57.8324 70.8226 56.5582C70.8226 55.284 71.1076 54.2222 71.6776 53.2312C72.2476 52.2402 72.9601 51.5323 73.9576 51.0368C74.8839 50.5413 75.9526 50.2582 77.0926 50.2582C79.0877 50.2582 80.5839 50.8952 81.7239 52.1694L80.0139 54.0099C79.3014 53.1604 78.3752 52.8065 77.2352 52.8065C76.5226 52.8065 75.8814 52.9481 75.3826 53.2312C74.8839 53.5144 74.3851 53.9391 74.1001 54.5054C73.8151 55.0717 73.6014 55.7795 73.6014 56.5582C73.6014 57.3369 73.7439 58.0447 74.0289 58.611C74.3139 59.1773 74.7414 59.602 75.3114 59.956C75.8814 60.3099 76.4514 60.4515 77.1639 60.4515C77.7339 60.4515 78.3039 60.3099 78.8027 60.0976C79.3014 59.8852 79.7289 59.4605 80.1564 59.0357L81.8664 60.7346C81.2964 61.5133 80.5839 62.0796 79.7289 62.4335C78.8739 62.7875 77.9476 62.9998 77.0214 62.9998C75.7389 62.929 74.7414 62.7167 73.8151 62.1504Z" fill="#787899"/>
<path d="M87.1386 52.8774H83.7186V50.5414H93.1949V52.8774H89.7749V62.646H87.1386V52.8774Z" fill="#787899"/>
</svg>
