<svg width="166" height="29" viewBox="0 0 166 29" fill="none" xmlns="http://www.w3.org/2000/svg">
<path d="M8.69969 19.4579C11.7438 19.4579 14.1033 17.1055 14.1033 13.6214V0.0643733H17.4049V22.0369H14.1341V19.9979C13.3822 20.7761 12.4788 21.3921 11.4797 21.8083C10.4806 22.2243 9.40676 22.4317 8.32441 22.4174C3.61634 22.4119 0 18.9894 0 13.8116V0.0731716H3.30159V13.6258C3.30159 17.1671 5.62481 19.4546 8.7052 19.4546" fill="#787899"/>
<path d="M23.0197 0.0643733V8.0664C23.7587 7.30931 24.6424 6.70823 25.6183 6.29885C26.5941 5.88946 27.6422 5.6801 28.7006 5.68317C29.8079 5.67049 30.9066 5.87747 31.9333 6.29212C32.9599 6.70678 33.894 7.32088 34.6816 8.09884C35.469 8.87681 36.0942 9.80319 36.5209 10.8243C36.9476 11.8454 37.1672 12.941 37.1672 14.0475C37.1672 15.1541 36.9476 16.2497 36.5209 17.2709C36.0942 18.2919 35.469 19.2184 34.6816 19.9963C33.894 20.7743 32.9599 21.3884 31.9333 21.803C30.9066 22.2177 29.8079 22.4247 28.7006 22.4119C27.6362 22.4146 26.5818 22.2053 25.5992 21.7961C24.6167 21.3868 23.7255 20.786 22.9779 20.0287V22.0358H19.8359V0.0643733H23.0197ZM28.4794 19.6141C29.5799 19.6203 30.6575 19.2997 31.5754 18.6931C32.4935 18.0866 33.2106 17.2213 33.636 16.2071C34.0614 15.1927 34.1759 14.075 33.9649 12.9957C33.7539 11.9164 33.2271 10.9238 32.451 10.144C31.675 9.36422 30.6848 8.8322 29.6059 8.61539C28.527 8.39859 27.4079 8.50676 26.3906 8.9262C25.3733 9.34564 24.5034 10.0575 23.8914 10.9715C23.2793 11.8855 22.9526 12.9604 22.9526 14.0602C22.95 14.7877 23.0909 15.5086 23.3673 16.1816C23.6438 16.8546 24.0503 17.4665 24.5637 17.9823C25.077 18.4981 25.687 18.9078 26.359 19.1878C27.0309 19.4678 27.7514 19.6127 28.4794 19.6141Z" fill="#787899"/>
<path d="M46.5999 5.71398C47.6813 5.70408 48.7533 5.91487 49.7502 6.33342C50.7472 6.75198 51.6482 7.36951 52.3981 8.14819C53.1479 8.92687 53.7309 9.85031 54.1111 10.862C54.4913 11.8736 54.6609 12.9522 54.6095 14.0317V15.0666H41.5771C41.7721 16.3331 42.4142 17.4881 43.3874 18.3226C44.3605 19.1571 45.6004 19.6161 46.8827 19.6164C47.786 19.6329 48.6795 19.427 49.4844 19.0167C50.2891 18.6065 50.9804 18.0045 51.4972 17.264L53.7896 18.9576C52.9952 20.0371 51.9535 20.9106 50.7518 21.5054C49.5502 22.1 48.2235 22.3984 46.8827 22.3758C45.788 22.3942 44.7002 22.1972 43.6817 21.7956C42.6632 21.3941 41.7338 20.796 40.9464 20.0356C40.1592 19.2751 39.5296 18.3672 39.0935 17.3635C38.6573 16.3598 38.4234 15.2802 38.4048 14.1862C38.3862 13.0922 38.5834 12.0051 38.9852 10.9873C39.387 9.96949 39.9855 9.04069 40.7465 8.25397C41.5075 7.46726 42.4161 6.83803 43.4204 6.40222C44.4247 5.9664 45.5051 5.73255 46.5999 5.71398ZM41.6398 12.5547H51.4059C51.196 11.4149 50.5952 10.3838 49.7068 9.63889C48.8184 8.894 47.6979 8.48184 46.5382 8.47334C45.3769 8.48765 44.2557 8.90123 43.3637 9.64453C42.4715 10.3878 41.8628 11.4155 41.6398 12.5547Z" fill="#787899"/>
<path d="M63.1185 8.85384C61.0484 8.85384 59.5385 10.4551 59.5385 12.9362V22.0369H56.3657V6.0274H59.5077V8.00701C59.8981 7.3447 60.4603 6.79996 61.1347 6.43026C61.8091 6.06056 62.571 5.87958 63.3397 5.90642H64.4402V8.85604L63.1185 8.85384Z" fill="#787899"/>
<path d="M73.0398 22.0314V0.0632322H86.3859V2.95017H76.337V9.60606H86.0723V12.4655H76.337V22.0391H73.0354L73.0398 22.0314Z" fill="#787899"/>
<path d="M94.9845 8.85381C94.5011 8.83978 94.0205 8.93086 93.5759 9.12075C93.1312 9.31065 92.7331 9.59481 92.4092 9.95359C91.7047 10.7818 91.345 11.8486 91.4045 12.934V22.0347H88.2316V6.02297H91.3736V8.00258C91.7559 7.36775 92.2908 6.83848 92.9298 6.46288C93.6236 6.07169 94.4104 5.87594 95.2068 5.89649H96.3073V8.84611H94.9867L94.9845 8.85381Z" fill="#787899"/>
<path d="M96.872 14.0316C96.8667 12.9333 97.0803 11.845 97.5004 10.8301C97.905 9.84667 98.4903 8.94767 99.2261 8.17965C100.385 7.00721 101.868 6.20628 103.484 5.87898C105.1 5.55169 106.778 5.71285 108.302 6.34191C109.26 6.7419 110.127 7.33405 110.847 8.08176C111.571 8.84319 112.135 9.74027 112.511 10.7213C112.916 11.7776 113.118 12.9005 113.108 14.0316V15.0709H100.076C100.224 16.0097 100.618 16.8927 101.217 17.6311C101.816 18.3694 102.599 18.937 103.487 19.2765C104.094 19.509 104.738 19.6261 105.388 19.6218C106.292 19.6401 107.186 19.4348 107.991 19.0244C108.796 18.614 109.487 18.0111 110.003 17.2694L112.295 18.963C111.515 20.0138 110.505 20.8728 109.343 21.4749C108.118 22.0942 106.761 22.4067 105.388 22.3856C104.243 22.3942 103.108 22.181 102.044 21.7576C101.036 21.3569 100.118 20.7586 99.3449 19.9979C98.5776 19.2385 97.9637 18.3387 97.5367 17.3474C97.0897 16.3 96.865 15.1713 96.8765 14.0327M105.04 8.4733C103.898 8.4546 102.787 8.84953 101.914 9.58518C101.007 10.3493 100.384 11.3948 100.142 12.5546H109.908C109.681 11.3961 109.067 10.349 108.167 9.58518C107.292 8.85189 106.182 8.45727 105.04 8.4733Z" fill="#787899"/>
<path d="M116.858 3.79923C116.605 3.80554 116.354 3.76 116.118 3.66543C115.884 3.57086 115.671 3.42925 115.493 3.24933C115.298 3.07705 115.141 2.86765 115.029 2.63345C114.916 2.39926 114.851 2.14499 114.839 1.8856C114.854 1.63088 114.918 1.3816 115.031 1.15235C115.143 0.923108 115.3 0.718489 115.492 0.550468C115.67 0.370559 115.883 0.228954 116.117 0.134381C116.352 0.039808 116.603 -0.00572929 116.857 0.000575743C117.103 -0.00522492 117.347 0.0407225 117.575 0.135446C117.803 0.230168 118.008 0.371559 118.177 0.550468C118.351 0.725707 118.488 0.933909 118.58 1.16282C118.672 1.39173 118.718 1.63674 118.713 1.8834C118.72 2.135 118.676 2.38535 118.583 2.61961C118.492 2.85387 118.353 3.06726 118.177 3.24713C118.008 3.4254 117.802 3.56635 117.575 3.66102C117.347 3.7557 117.103 3.80202 116.857 3.79703M118.428 22.0292H115.255V6.02299H118.428V22.0292Z" fill="#787899"/>
<path d="M137.924 22.5351C137.966 23.3148 137.847 24.0946 137.574 24.8262C137.301 25.5577 136.881 26.2251 136.338 26.7869C135.754 27.3226 135.068 27.7361 134.322 28.003C133.576 28.2699 132.782 28.3848 131.991 28.3409H127.967V25.6442H131.295C133.577 25.6442 134.719 24.5254 134.72 22.2877V19.9396C133.994 20.6468 133.142 21.211 132.207 21.6025C131.243 22.0041 130.207 22.2073 129.163 22.1997C128.042 22.2093 126.931 21.9904 125.897 21.5563C124.914 21.1426 124.017 20.5454 123.256 19.7967C122.499 19.0484 121.897 18.1582 121.484 17.177C121.05 16.1444 120.831 15.034 120.84 13.9139C120.834 12.8312 121.045 11.7582 121.461 10.7583C121.877 9.75849 122.489 8.85211 123.262 8.09279C124.838 6.54916 126.958 5.6875 129.165 5.69416C130.224 5.68465 131.272 5.89318 132.246 6.30674C133.185 6.71254 134.038 7.29247 134.76 8.01581V6.0362H137.933V22.5329L137.924 22.5351ZM123.98 13.9029C123.974 14.6466 124.118 15.3839 124.403 16.0706C124.672 16.7216 125.069 17.3128 125.567 17.8105C126.058 18.3039 126.638 18.6989 127.277 18.974C127.942 19.2597 128.66 19.4036 129.384 19.3963C130.112 19.4025 130.835 19.2588 131.506 18.974C132.151 18.7023 132.733 18.301 133.216 17.7951C133.702 17.2829 134.092 16.6867 134.365 16.0354C134.649 15.3594 134.793 14.6328 134.787 13.8996C134.793 13.1713 134.65 12.4497 134.365 11.7792C134.092 11.1344 133.697 10.5487 133.201 10.0548C132.707 9.56412 132.127 9.16953 131.49 8.89124C130.823 8.61262 130.107 8.46914 129.383 8.46914C128.66 8.46914 127.944 8.61262 127.276 8.89124C125.983 9.45068 124.954 10.4843 124.402 11.7792C124.118 12.4499 123.974 13.1715 123.979 13.8996" fill="#787899"/>
<path d="M143.806 22.0314H140.633V0.0621582H143.806V7.78264C144.37 7.11462 145.077 6.58293 145.876 6.22755C147.516 5.5223 149.368 5.49306 151.03 6.14616C151.761 6.44479 152.422 6.88769 152.977 7.44831C153.523 8.00546 153.951 8.66724 154.234 9.39383C154.532 10.1583 154.681 10.9722 154.674 11.7924V22.0204H151.501V12.4259C151.525 11.9098 151.446 11.3939 151.269 10.9085C151.092 10.4232 150.819 9.97819 150.467 9.59949C150.109 9.24201 149.681 8.96307 149.21 8.78051C148.739 8.59795 148.234 8.51578 147.729 8.53929C147.207 8.52025 146.688 8.60799 146.201 8.79712C145.716 8.98625 145.273 9.27277 144.901 9.63908C144.53 10.0202 144.242 10.473 144.053 10.9696C143.864 11.4662 143.778 11.9962 143.801 12.5271V22.0347L143.806 22.0314Z" fill="#787899"/>
<path d="M165.646 8.81427V6.02302H161.979V1.31815H158.807V6.02852H156.082V8.82307H158.807V18.5825C158.791 19.0406 158.869 19.497 159.037 19.9237C159.204 20.3503 159.457 20.7383 159.781 21.0636C160.162 21.4071 160.609 21.6701 161.095 21.8374C161.581 22.0046 162.095 22.0724 162.608 22.0369H165.652V19.2413H163.545C163.134 19.2641 162.727 19.142 162.396 18.8959C162.252 18.7728 162.14 18.6179 162.066 18.4437C161.994 18.2694 161.962 18.0806 161.974 17.8918V8.81427H165.646Z" fill="#787899"/>
</svg>
